<svg id="Layer_1" data-name="Layer 1" xmlns="http://www.w3.org/2000/svg" xmlns:xlink="http://www.w3.org/1999/xlink" viewBox="0 0 129.36 128.96"><defs><style>.cls-1{fill:#def9f8;}.cls-2{fill:#4d4d4d;}.cls-3{clip-path:url(#clip-path);}.cls-4{fill:#b3e5e1;}.cls-5{fill:#ff1d25;stroke:#ff1d25;}.cls-10,.cls-5,.cls-6,.cls-7,.cls-8,.cls-9{stroke-miterlimit:10;}.cls-6{fill:#ff931e;stroke:#ff931e;}.cls-7,.cls-9{fill:#7ac943;stroke:#7ac943;}.cls-8{fill:#e6e6e6;stroke:#e6e6e6;stroke-width:0.72px;}.cls-9{stroke-width:0.63px;}.cls-10{fill:#fff;stroke:#fff;stroke-width:0.87px;}.cls-11{fill:#b3b3b3;}.cls-12{clip-path:url(#clip-path-2);}</style><clipPath id="clip-path"><rect class="cls-1" x="28.64" y="41.12" width="29.58" height="10.56" rx="1.63"/></clipPath><clipPath id="clip-path-2"><rect class="cls-1" x="67.07" y="83.08" width="29.58" height="10.56" rx="1.63"/></clipPath></defs><rect class="cls-2" x="20.03" y="32.47" width="85.22" height="28.3" rx="4.41"/><rect class="cls-1" x="28.64" y="41.12" width="29.58" height="10.56" rx="1.63"/><g class="cls-3"><path class="cls-4" d="M59.94,38.67c-4.43,9.18-14.78,13.79-31.3,13.65l33.24,3.6Z"/></g><circle class="cls-5" cx="74.38" cy="46.4" r="2.64"/><circle class="cls-6" cx="83.81" cy="46.4" r="2.64"/><circle class="cls-7" cx="93.24" cy="46.4" r="2.64"/><rect class="cls-2" x="20.03" y="74.21" width="85.22" height="28.3" rx="4.41" transform="translate(125.29 176.71) rotate(-180)"/><circle class="cls-7" cx="50.91" cy="88.13" r="2.64"/><circle class="cls-6" cx="41.48" cy="88.13" r="2.64"/><circle class="cls-5" cx="32.05" cy="88.13" r="2.64"/><circle class="cls-8" cx="20.48" cy="65.59" r="13.91"/><circle class="cls-9" cx="103.51" cy="34.22" r="12.16"/><path class="cls-10" d="M109.62,30l-7.34,5.94a.8.8,0,0,1-.73.13l-2.17-.67a1,1,0,0,0-1.11.36h0a1,1,0,0,0,.17,1.39l2.63,2.14a1.81,1.81,0,0,0,2.44-.15l7.43-7.7a1,1,0,0,0,.08-1.25h0A1,1,0,0,0,109.62,30Z"/><path class="cls-11" d="M29.08,64.08h-.89A7.77,7.77,0,0,0,26.84,61h0l.6-.6a.31.31,0,0,0,0-.44l-1.7-1.7a.31.31,0,0,0-.44,0l-.6.6a.16.16,0,0,0-.06.08,8,8,0,0,0-2.63-1,.43.43,0,0,0,0-.05V57a.31.31,0,0,0-.31-.32H19.3A.31.31,0,0,0,19,57v.89a7.86,7.86,0,0,0-2.64,1,.61.61,0,0,0-.07-.1l-.6-.6a.31.31,0,0,0-.44,0l-1.7,1.71a.31.31,0,0,0,0,.44l.6.6h0a7.78,7.78,0,0,0-1.36,3.11h-.9a.31.31,0,0,0-.31.31v2.41a.31.31,0,0,0,.31.31h.9a7.83,7.83,0,0,0,1,2.65.24.24,0,0,0-.09.06l-.6.6a.31.31,0,0,0,0,.44l1.7,1.7a.33.33,0,0,0,.45,0l.59-.6A7.69,7.69,0,0,0,19,73.29s0,0,0,0v.85a.31.31,0,0,0,.31.31h2.41a.31.31,0,0,0,.31-.31v-.85s0,0,0,0a7.83,7.83,0,0,0,3.11-1.35l.59.59a.31.31,0,0,0,.44,0l1.7-1.7a.3.3,0,0,0,0-.44l-.59-.6a.47.47,0,0,0-.09-.06,7.75,7.75,0,0,0,1-2.63h.89a.31.31,0,0,0,.32-.31V64.39A.31.31,0,0,0,29.08,64.08Zm-8.6,3.84a2.34,2.34,0,1,1,2.34-2.33A2.33,2.33,0,0,1,20.48,67.92Z"/><rect class="cls-1" x="67.07" y="83.08" width="29.58" height="10.56" rx="1.63"/><g class="cls-12"><path class="cls-4" d="M98.37,80.63c-4.43,9.18-14.78,13.79-31.3,13.65l33.24,3.6Z"/></g></svg>