<svg id="Layer_1" data-name="Layer 1" xmlns="http://www.w3.org/2000/svg" viewBox="0 0 1743.6 529.25"><path d="M843.74,504.28H813.82V627.34H790.14V504.28H771.67V484.76h18.47V474.61q0-23.92,12.36-35t39.68-11.06v19.77q-15.61,0-22,6.12t-6.37,20.16v10.15h29.92Z" transform="translate(-87.01 -275.44)"/><path d="M1000.63,564.9h-114Q888,586,901.11,597.81T933,609.65q15.35,0,25.63-7.15a37.92,37.92,0,0,0,14.44-19.13h25.5a61.31,61.31,0,0,1-22.9,33.44Q958.48,629.68,933,629.68q-20.29,0-36.29-9.1a64.43,64.43,0,0,1-25.11-25.89q-9.12-16.79-9.11-38.9T871.32,517a62.07,62.07,0,0,1,24.85-25.62q16-9,36.81-9,20.29,0,35.91,8.84A61.22,61.22,0,0,1,993,515.6q8.46,15.46,8.46,35A139.43,139.43,0,0,1,1000.63,564.9ZM971,522.36a38.94,38.94,0,0,0-16.26-14.83,50.65,50.65,0,0,0-22.77-5.07q-18,0-30.57,11.44t-14.44,31.74h90Q977,532.13,971,522.36Z" transform="translate(-87.01 -275.44)"/><path d="M1032.63,517.16A64.18,64.18,0,0,1,1057,491.53a66.7,66.7,0,0,1,34.47-9.11q18.73,0,32.52,8.07t20.56,20.29v-26h23.94V627.34h-23.94V600.8q-7,12.5-21,20.69t-32.39,8.19a64.56,64.56,0,0,1-34.34-9.37,65.52,65.52,0,0,1-24.2-26.27q-8.85-16.9-8.85-38.51Q1023.78,533.68,1032.63,517.16ZM1138,527.69a46,46,0,0,0-17.56-18.34,49.76,49.76,0,0,0-48.52-.13,45.25,45.25,0,0,0-17.43,18.21q-6.51,12-6.51,28.1,0,16.4,6.51,28.49a45.93,45.93,0,0,0,17.43,18.48,47.22,47.22,0,0,0,24.2,6.37,47.92,47.92,0,0,0,24.32-6.37A45.69,45.69,0,0,0,1138,584q6.51-12.09,6.51-28.23T1138,527.69Z" transform="translate(-87.01 -275.44)"/><path d="M1237.39,504.28v84c0,7,1.48,11.84,4.43,14.71s8.06,4.29,15.35,4.29h17.43v20h-21.34q-19.77,0-29.66-9.11t-9.88-29.92v-84h-18.48V484.76h18.48v-35.9h23.67v35.9h37.21v19.52Z" transform="translate(-87.01 -275.44)"/><path d="M1403.13,489.06a48.92,48.92,0,0,1,20.42,20.68q7.42,13.78,7.42,33.57v84h-23.42V546.69q0-21.33-10.66-32.66t-29.15-11.31q-18.72,0-29.79,11.7t-11,34.09v78.83h-23.68V434.81h23.68v70.24a46.63,46.63,0,0,1,19.38-16.9,62.74,62.74,0,0,1,27.71-6A61.22,61.22,0,0,1,1403.13,489.06Z" transform="translate(-87.01 -275.44)"/><path d="M1599,564.9h-114q1.29,21.08,14.44,32.91t31.87,11.84q15.35,0,25.63-7.15a37.92,37.92,0,0,0,14.44-19.13H1597a61.31,61.31,0,0,1-22.9,33.44q-17.17,12.87-42.67,12.87-20.3,0-36.3-9.1a64.4,64.4,0,0,1-25.1-25.89q-9.12-16.79-9.11-38.9t8.84-38.77a62.13,62.13,0,0,1,24.85-25.62q16-9,36.82-9,20.3,0,35.9,8.84a61.31,61.31,0,0,1,24.07,24.34q8.46,15.46,8.46,35A136.77,136.77,0,0,1,1599,564.9Zm-29.65-42.54a39,39,0,0,0-16.27-14.83,50.6,50.6,0,0,0-22.76-5.07q-18,0-30.57,11.44t-14.44,31.74h90Q1575.37,532.13,1569.39,522.36Z" transform="translate(-87.01 -275.44)"/><path d="M1672.55,488.92q11.57-6.76,28.23-6.76v24.46h-6.25q-39.81,0-39.81,43.19v77.53h-23.67V484.76h23.67v23.16A45.56,45.56,0,0,1,1672.55,488.92Z" transform="translate(-87.01 -275.44)"/><path d="M1749.17,624.09a49.55,49.55,0,0,1-20.56-15.61,41.53,41.53,0,0,1-8.32-23h24.45a24,24,0,0,0,10,17.43q9,6.78,23.55,6.77,13.51,0,21.33-6t7.81-15.1q0-9.36-8.33-13.91t-25.76-9a187,187,0,0,1-25.88-8.46,45.79,45.79,0,0,1-17.18-12.75q-7.15-8.44-7.15-22.24a33.68,33.68,0,0,1,6.5-20q6.51-9.1,18.47-14.45a66.59,66.59,0,0,1,27.32-5.33q23.68,0,38.25,12t15.61,32.78h-23.67a24.49,24.49,0,0,0-9-17.95q-8.19-6.77-22-6.76-12.75,0-20.29,5.46t-7.54,14.31a15.68,15.68,0,0,0,4.55,11.58,33.24,33.24,0,0,0,11.45,7.28,198.29,198.29,0,0,0,19.12,6.12,205.32,205.32,0,0,1,25,8.19,43.86,43.86,0,0,1,16.52,12.1q6.88,8.07,7.15,21.07a36,36,0,0,1-6.5,21.08,43.32,43.32,0,0,1-18.34,14.7q-11.85,5.32-27.19,5.33A73.72,73.72,0,0,1,1749.17,624.09Z" transform="translate(-87.01 -275.44)"/><path d="M266,352.4c-40.87,4-76.43,30.61-92.49,69.19a30,30,0,0,1-14.1,14.25c-51.44,22-80.87,78.11-70.28,134a151.72,151.72,0,0,0,6,21.22c20.28,53,74.47,84.46,129.47,75.08,6-1,12.92-6.82,15.57-12.32l2.75-5.71c2.64-5.49,0-11.62-5.55-10.22-24.51,6.29-39.15,6.41-53,3.16a111.3,111.3,0,0,1-20.71-7.54,95.63,95.63,0,0,1-34-29.35,117.42,117.42,0,0,1-10.75-19.25,98.53,98.53,0,0,1-6.48-51.87,119.86,119.86,0,0,1,5.42-21.36,97.18,97.18,0,0,1,44.57-50.5c5.38-2.87,14.89-5.77,20.41-8.34l0,0c5.4-2.53,9.16-12.14,11.31-17.85a101.55,101.55,0,0,1,4.52-10.25A112,112,0,0,1,211,406.46a88.4,88.4,0,0,1,34.84-24.67,101.56,101.56,0,0,1,21.41-5.14,87.5,87.5,0,0,1,38,4.33A84.41,84.41,0,0,1,320,387.75l9.81-9.84c4.31-4.31,3.68-10.58-1.72-13.42a110.8,110.8,0,0,0-40-12.05,133.07,133.07,0,0,0-22.05,0m244.84,38.42-2.27,2.28c-4.31,4.32-5.61,12.27-3.45,18a93.62,93.62,0,0,1,6.27,28A87.12,87.12,0,0,1,509.13,461c-.6,2.26-1.3,4.5-2,6.72-1.91,5.8-5.63,15.51-4.16,21.31a21.15,21.15,0,0,0,4.2,8.22c3.83,4.65,13.73,7.38,19.8,7.88a71.7,71.7,0,0,1,26.62,8.45,100.7,100.7,0,0,1,17.76,13,88.38,88.38,0,0,1,8.55,9.46,104.48,104.48,0,0,1,11.26,18.93,87.29,87.29,0,0,1,5,52A106.27,106.27,0,0,1,589,627.83a84.27,84.27,0,0,1-37.38,37.68,99.62,99.62,0,0,1-20.78,7.31c-25.28,5.15-52.8-3.05-71.67-20.63-4.46-4.15-9.95-12.71-15-16.07a26.62,26.62,0,0,0-19.76-4c-5.9,1.22-12.17,9.16-15.66,14.17a100.36,100.36,0,0,1-16,18.08,105.18,105.18,0,0,1-18.22,12.38,92.74,92.74,0,0,1-23.36,8,103,103,0,0,1-22,1.61,89.07,89.07,0,0,1-22.82-4.46c-5.77-1.94-12.37.33-15,5.82l-1,2c-2.64,5.49-.33,12.14,5.4,14.22,46.39,16.85,98.34,1.48,128.72-38.08,3.71-4.84,9.29-5.1,13.48-.68a106.21,106.21,0,0,0,74,33.28,126.4,126.4,0,0,0,22-1.67,107,107,0,0,0,68.34-44.11A133.28,133.28,0,0,0,613,633.44a111.6,111.6,0,0,0,2.42-82.7,132.85,132.85,0,0,0-9.6-19.84,107.35,107.35,0,0,0-65.65-48.23,81.63,81.63,0,0,0-12-2.08c10.28-36.13,6.82-63.57-4.45-87.78-2.57-5.53-8.58-6.3-12.89-2" transform="translate(-87.01 -275.44)"/><path d="M470.25,362.88c33.54-2.12,76.1-17.29,87.9-61.36-9.23-36.9-50-25.55-73.54-19.9-32.06,11-60.1,36.21-82,67.1,7.26-19.46,1.87-26.27-10.62-10.42-18.06,11-33.35,51.35-39.18,59-15.36-28.38-18.26,44.19-38.23,42.36-16.91,3.43-6.68,63.3-19.32,38.26-16.12,21.44.35,62.33-21.83,65.36-8.27,28.82-10.39,59.79-9,90.23,31.64-81.94,61.86-170,118.35-230.2,9.16-10,27.63-20.92,9.12-3.54-82,91.22-122,224.74-147.91,354.9-5.93,15.79-14.3,61.72,10.48,47.24-.67-36.68-.42-75.93,10.36-111.58,19.16-39.92,59.87-44.76,84.22-77.21,9.51-15.56,50-55.28,17.41-53.66,17.89-2.63,51.13-56,14.95-46.43-9-1.21,23.25-20.3,29.27-30.82,10.18-12.82,39.47-39.62,35.58-46.59C435,440,393,428.8,426,427.1c24.51,5.36,45-10.81,60.47-33.06,12.34-11.21,25.82-33.31.58-28.81l-16.83-2.35" transform="translate(-87.01 -275.44)"/><path d="M785.33,727.74a27.64,27.64,0,0,1,10.75-10.88A31.2,31.2,0,0,1,811.71,713a29.94,29.94,0,0,1,18.34,5.65A27.09,27.09,0,0,1,840.24,734h-16.1a13,13,0,0,0-5.1-5.73,14.39,14.39,0,0,0-7.5-2,14,14,0,0,0-11,4.72q-4.2,4.71-4.2,12.59t4.2,12.59a14,14,0,0,0,11,4.71,14.29,14.29,0,0,0,7.5-2,13,13,0,0,0,5.1-5.74h16.1a27,27,0,0,1-10.19,15.38q-7.63,5.61-18.34,5.6a31.2,31.2,0,0,1-15.63-3.89,27.71,27.71,0,0,1-10.75-10.83,34.63,34.63,0,0,1,0-31.74Z" transform="translate(-87.01 -275.44)"/><path d="M889.58,762.47h19.18v11.31H874.93V713.65h14.65Z" transform="translate(-87.01 -275.44)"/><path d="M954.37,770.44a29.43,29.43,0,0,1-11.22-11,32.4,32.4,0,0,1,0-31.73,29.54,29.54,0,0,1,11.22-11,32.66,32.66,0,0,1,31.1,0,28.89,28.89,0,0,1,11.13,11,32.82,32.82,0,0,1,0,31.73,29.22,29.22,0,0,1-11.14,11,32.56,32.56,0,0,1-31,0Zm27.07-14.22q4.34-4.8,4.33-12.68t-4.33-12.71q-4.32-4.77-11.52-4.76t-11.6,4.71Q954,735.49,954,743.54t4.33,12.72q4.32,4.75,11.6,4.76A14.74,14.74,0,0,0,981.44,756.22Z" transform="translate(-87.01 -275.44)"/><path d="M1048.89,713.65v36q0,5.39,2.66,8.31c1.77,1.93,4.37,2.91,7.79,2.91s6.06-1,7.89-2.91,2.73-4.72,2.73-8.31v-36h14.65v35.89a25.54,25.54,0,0,1-3.42,13.62,22.07,22.07,0,0,1-9.21,8.4,29,29,0,0,1-12.89,2.82,28.31,28.31,0,0,1-12.72-2.78,20.81,20.81,0,0,1-8.87-8.4,26.79,26.79,0,0,1-3.25-13.66V713.65Z" transform="translate(-87.01 -275.44)"/><path d="M1159.73,717.41a27,27,0,0,1,11,10.59,33.53,33.53,0,0,1,0,31.39,26.75,26.75,0,0,1-11,10.62,35.06,35.06,0,0,1-16.57,3.77h-22.53V713.65h22.53A35,35,0,0,1,1159.73,717.41Zm-4.62,39.15q4.62-4.53,4.62-12.85c0-5.54-1.54-9.84-4.62-12.93s-7.4-4.62-12.94-4.62h-6.94V761.1h6.94Q1150.48,761.1,1155.11,756.56Z" transform="translate(-87.01 -275.44)"/></svg>