<svg id="Layer_1" data-name="Layer 1" xmlns="http://www.w3.org/2000/svg" xmlns:xlink="http://www.w3.org/1999/xlink" viewBox="0 0 129.36 128.96"><defs><style>.cls-1,.cls-18{fill:none;}.cls-2{fill:#f2c666;}.cls-3{fill:#fff;}.cls-4{clip-path:url(#clip-path);}.cls-5{fill:#27464f;}.cls-25,.cls-6{fill:#f2f2f2;}.cls-7{clip-path:url(#clip-path-2);}.cls-8{fill:#d3aa59;}.cls-9{fill:#243e44;}.cls-10{clip-path:url(#clip-path-3);}.cls-11{clip-path:url(#clip-path-4);}.cls-12{fill:#00a99d;}.cls-13{fill:#bedbda;}.cls-14{fill:#f1f1f1;}.cls-15{clip-path:url(#clip-path-5);}.cls-16{clip-path:url(#clip-path-6);}.cls-17{fill:#cbcbcb;}.cls-18{stroke:#2e454e;stroke-width:0.43px;}.cls-18,.cls-25,.cls-26{stroke-linecap:round;stroke-linejoin:round;}.cls-19{fill:#c8ebea;}.cls-20{fill:#eac775;}.cls-21{fill:#2e454e;}.cls-22{fill:#d85e59;}.cls-23{fill:#606060;opacity:0.44;}.cls-24{fill:#c75955;}.cls-25{stroke:#fff;}.cls-25,.cls-26{stroke-width:2.06px;}.cls-26{fill:#ccc;stroke:#e6e6e6;}.cls-27{fill:red;}.cls-28{fill:#db9757;}.cls-29{clip-path:url(#clip-path-7);}.cls-30{fill:#e6e6e6;}</style><clipPath id="clip-path"><circle class="cls-1" cx="67.07" cy="-94.79" r="53.31"/></clipPath><clipPath id="clip-path-2"><path class="cls-2" d="M103.31-22.5a4,4,0,0,0-5.14,1.27l-13,18.4a7.41,7.41,0,0,0-1,4h0l1.36,12.58c.21,2,2,3.1,4,3.07,2.31,0,3.94-1.49,3.7-3.73L92,2.37A3.55,3.55,0,0,1,92.67,0l11.89-16.88A3.85,3.85,0,0,0,103.31-22.5Z"/></clipPath><clipPath id="clip-path-3"><path class="cls-2" d="M114.1-28.72a4,4,0,0,0-2.83,4.48L114.64-2a7.39,7.39,0,0,0,2,3.59h0l9.7,8.14c1.54,1.3,3.56.87,5-.54,1.64-1.62,1.8-3.8.08-5.25L123.18-3A3.51,3.51,0,0,1,122-5.14l-3.1-20.42A3.86,3.86,0,0,0,114.1-28.72Z"/></clipPath><clipPath id="clip-path-4"><circle class="cls-1" cx="64.68" cy="64.48" r="50.87"/></clipPath><clipPath id="clip-path-5"><path class="cls-1" d="M93.38,118.58h5.81a0,0,0,0,1,0,0V129.5a1.9,1.9,0,0,1-1.9,1.9h-2a1.9,1.9,0,0,1-1.9-1.9V118.58a0,0,0,0,1,0,0Z"/></clipPath><clipPath id="clip-path-6"><path class="cls-1" d="M116.63,118.58h5.81a0,0,0,0,1,0,0V129.5a1.9,1.9,0,0,1-1.9,1.9h-2a1.9,1.9,0,0,1-1.9-1.9V118.58a0,0,0,0,1,0,0Z"/></clipPath><clipPath id="clip-path-7"><path class="cls-3" d="M47.74,72.77H59a0,0,0,0,1,0,0V82a0,0,0,0,1,0,0H47.74a1,1,0,0,1-1-1V73.73a1,1,0,0,1,1-1Z" transform="translate(105.82 154.81) rotate(-180)"/></clipPath></defs><g class="cls-4"><path class="cls-5" d="M97.38,19.62V33.51a3.19,3.19,0,0,1-3.19,3.19H72.25a3.17,3.17,0,0,1-3.19-3.08c-.2-8.76,4.11-14.46,15.1-11.79"/><path class="cls-6" d="M89.88,23c3.84,0,7.9-1.52,7.9-5.27,0-3.45-2-4.63-4.58-3.87H85.79c-2.55-.76-4.58.42-4.58,3.87,0,3.75,4.82,5.31,8.67,5.27"/><path class="cls-2" d="M103.31-22.5a4,4,0,0,0-5.14,1.27l-13,18.4a7.41,7.41,0,0,0-1,4h0l1.36,12.58c.21,2,2,3.1,4,3.07,2.31,0,3.94-1.49,3.7-3.73L92,2.37A3.55,3.55,0,0,1,92.67,0l11.89-16.88A3.85,3.85,0,0,0,103.31-22.5Z"/><g class="cls-7"><path class="cls-8" d="M107.8-22.25A4,4,0,0,0,102.65-21l-13,18.39a7.35,7.35,0,0,0-1,4h0l2.64,21.67c.21,2,.69-6,2.71-6,2.31,0,3.93-1.5,3.69-3.74L96.53,2.62A3.52,3.52,0,0,1,97.15.2l11.9-16.88A3.85,3.85,0,0,0,107.8-22.25Z"/></g><path class="cls-9" d="M79.06,21.37c-3.15,0-5.81,1-7.68,3.41a1,1,0,0,0,.21,1.36h0A.92.92,0,0,0,72.84,26a8.1,8.1,0,0,1,6.28-2.75A.92.92,0,0,0,80,22.3h0A.93.93,0,0,0,79.06,21.37Z"/><rect class="cls-9" x="72.1" y="34.5" width="23.82" height="2.53" rx="0.98"/><path class="cls-5" d="M139,5.79l10,10.38a2.71,2.71,0,0,1-.08,3.82L132.31,35.84a2.71,2.71,0,0,1-3.76,0c-6.5-6.26-7.55-13.51,2.41-19.29"/><path class="cls-6" d="M135.9,13.44c2.81-2.64,4.66-6.58,2.06-9.29-2.39-2.48-4.67-1.93-6,.38l-5.34,5.13c-2.38,1.22-3,3.48-.63,6,2.59,2.7,7.15.5,9.9-2.19"/><path class="cls-2" d="M114.1-28.72a4,4,0,0,0-2.83,4.48L114.64-2a7.39,7.39,0,0,0,2,3.59h0l9.7,8.14c1.54,1.3,3.56.87,5-.54,1.64-1.62,1.8-3.8.08-5.25L123.18-3A3.51,3.51,0,0,1,122-5.14l-3.1-20.42A3.86,3.86,0,0,0,114.1-28.72Z"/><g class="cls-10"><path class="cls-8" d="M118-30.35c-1.95.49-5.08-8-4.77-6L118.5-3.62a7.33,7.33,0,0,0,2,3.59h0l14.42,12.24c1.54,1.3-1.17-3.23.27-4.64,1.64-1.62,1.81-3.8.08-5.25L127-4.59a3.55,3.55,0,0,1-1.22-2.19l-3.1-20.41A3.86,3.86,0,0,0,118-30.35Z"/></g><path class="cls-9" d="M128,19c-2.53,1.89-4.1,4.23-4.17,7.29a1,1,0,0,0,1,1h0a1,1,0,0,0,.92-.88,8.08,8.08,0,0,1,3.42-5.95.91.91,0,0,0,.17-1.26h0A.94.94,0,0,0,128,19Z"/></g><g class="cls-11"><circle class="cls-12" cx="64.77" cy="64.68" r="50.79"/><path class="cls-13" d="M79.46,71.09c-7,10-16.4,14.16-27.95,13.12A2.64,2.64,0,0,0,48.92,88c4.9,9.74,21.72,12.08,32,4.65"/><path class="cls-14" d="M91.92,128.49h8a1.86,1.86,0,0,1,1.86,1.86v2a1.94,1.94,0,0,1-1.94,1.94H92a1.94,1.94,0,0,1-1.94-1.94v-2a1.86,1.86,0,0,1,1.86-1.86Z"/><path class="cls-14" d="M115.35,128.89h8a1.86,1.86,0,0,1,1.86,1.86v2a1.94,1.94,0,0,1-1.94,1.94h-7.83a1.94,1.94,0,0,1-1.94-1.94v-2a1.86,1.86,0,0,1,1.86-1.86Z"/><g class="cls-15"><path class="cls-1" d="M98.9,131.4h0c-1.6,0-3.11,2.32-3.11.72L96,118.58h5.81v9.91A2.91,2.91,0,0,1,98.9,131.4Z"/></g><g class="cls-16"><path class="cls-1" d="M122.18,130.75h0c-1.6,0-3.11,2.33-3.11.72l.21-13.54h5.81v9.92A2.9,2.9,0,0,1,122.18,130.75Z"/></g><path class="cls-17" d="M98.62,60.88h8.72a7.21,7.21,0,0,0,7.21-7.22V41.78a6,6,0,0,0-6-6l-1.77.18-8.69-.18H82.65a4.42,4.42,0,0,0-4.42,4.42V60.09h3.44v5.7l-3.18,9.49v29.11a14.19,14.19,0,0,0,14.19,14.19h32.61a2.75,2.75,0,0,0,2.75-2.75h0L108.23,66.39V60.82"/><circle class="cls-18" cx="86.25" cy="42.58" r="8.02"/><path class="cls-18" d="M110.3,42.58a8,8,0,1,1-8-8,8,8,0,0,1,8,8Z"/><path class="cls-3" d="M78.49,103.74h5.26A12.22,12.22,0,0,0,96,91.52V69.41L78.5,73.06Z"/><path class="cls-19" d="M109,67.56a16.23,16.23,0,0,1,21.17,8.91c4.46,10.5-2,30.14-24.75,38.8a14.2,14.2,0,0,1-18.51-7.79c-5-10,8.31-33.55,21.75-39.77Z"/><path class="cls-20" d="M82.59,48.32H78.13a8.12,8.12,0,0,0-6.58,3.35l-.24.35c-.17.25-.8,1.31-1.47,2.46a48.23,48.23,0,0,0-3.35,6.85l-1.87,4.75c-.28,1.37-.21,2.84,1,3.56a2.68,2.68,0,0,0,3.81-1.15h0a14.25,14.25,0,0,1,12.88-8.13h.28a6,6,0,0,0,6-6h0A6,6,0,0,0,82.59,48.32Z"/><path class="cls-18" d="M110.3,42.58h5.3a3.61,3.61,0,0,1,3.61,3.61h0"/><path class="cls-3" d="M74.65,58.12c2.7,1.82,6.1,1.15,7.29-2.78a.31.31,0,0,0-.46-.35,20.19,20.19,0,0,1-6.73,2.58A.3.3,0,0,0,74.65,58.12Z"/><ellipse class="cls-21" cx="89.13" cy="44.73" rx="1.45" ry="1.78"/><ellipse class="cls-21" cx="96.79" cy="44.73" rx="1.45" ry="1.78"/><rect class="cls-21" x="97.06" y="34.9" width="7.45" height="2.61" rx="0.7" transform="translate(12.72 -24.73) rotate(14.92)"/><rect class="cls-21" x="82.25" y="35.84" width="7.45" height="2.61" rx="0.7" transform="translate(-6.67 23.4) rotate(-14.92)"/><path class="cls-22" d="M91.5,63.83h4.58a2.58,2.58,0,0,1,2.58,2.58v6.66a2.7,2.7,0,0,1-2.7,2.7H91.47a.76.76,0,0,1-.76-.76V64.62a.79.79,0,0,1,.79-.79Z" transform="translate(189.37 139.6) rotate(-180)"/><path class="cls-22" d="M76.37,63.83h4.48a2.7,2.7,0,0,1,2.7,2.7v6.66A2.58,2.58,0,0,1,81,75.77H76.4a.79.79,0,0,1-.79-.79V64.59a.76.76,0,0,1,.76-.76Z"/><path class="cls-23" d="M78.49,75.28v29.11c0,8.89,6.76,14.48,14.19,14.19C83.41,113.67,79.76,97,78.49,75.28Z"/><circle class="cls-24" cx="86.82" cy="69.8" r="4.46"/><path class="cls-25" d="M33.37,60.44h0a9.11,9.11,0,0,0-9.11,9.1V83.71H54.38V60.44h-21"/><path class="cls-26" d="M45.88,83.71h18.2V69.54a9.1,9.1,0,0,0-9.1-9.1h0a9.11,9.11,0,0,0-9.1,9.1Z"/><path class="cls-26" d="M64.16,83.71H45.88L59.63,94.09c3.81,3.28,8.47,2.82,11.87,2.82h0c3.76,0,7.2-.67,3.39-4Z"/><path class="cls-27" d="M46.09,54.57v4.29a.85.85,0,0,1-.85.85H41.56V71.33a.73.73,0,0,1-.73.72h0a.73.73,0,0,1-.73-.72V54.57a.86.86,0,0,1,.86-.85h4.28A.85.85,0,0,1,46.09,54.57Z"/><rect class="cls-28" x="39.32" y="83.71" width="5.92" height="32.62" transform="translate(84.56 200.04) rotate(-180)"/><path class="cls-3" d="M47.74,72.77H59a0,0,0,0,1,0,0V82a0,0,0,0,1,0,0H47.74a1,1,0,0,1-1-1V73.73a1,1,0,0,1,1-1Z" transform="translate(105.82 154.81) rotate(-180)"/><g class="cls-29"><polygon class="cls-30" points="59.33 72.52 46.78 77.92 36.12 72.77 59.33 72.52"/></g><path class="cls-19" d="M98.62,75.77c-8.44,10-19.77,14.16-33.71,13.12-2.47-.18-4.23,2-3.12,3.81,5.91,9.74,26.19,12.08,38.55,4.65"/></g></svg>