<svg id="Layer_1" data-name="Layer 1" xmlns="http://www.w3.org/2000/svg" xmlns:xlink="http://www.w3.org/1999/xlink" viewBox="0 0 129.36 128.96"><defs><style>.cls-1,.cls-11,.cls-26,.cls-4{fill:none;}.cls-2{fill:url(#linear-gradient);}.cls-3{fill:#f2c666;}.cls-4{stroke:#b3b3b3;stroke-width:1.96px;}.cls-26,.cls-4{stroke-miterlimit:10;}.cls-5{fill:#72c174;}.cls-6{fill:#c0edec;}.cls-7{fill:#fff;}.cls-8{clip-path:url(#clip-path);}.cls-9{fill:#f29538;}.cls-10{fill:#eda74c;}.cls-11{stroke:#27464f;stroke-width:0.46px;}.cls-11,.cls-17{stroke-linecap:round;stroke-linejoin:round;}.cls-12{clip-path:url(#clip-path-2);}.cls-13{fill:#e5893e;}.cls-14{opacity:0.21;}.cls-15{fill:#27464f;}.cls-16{clip-path:url(#clip-path-3);}.cls-17{stroke:#d67369;stroke-width:0.49px;fill:url(#linear-gradient-3);}.cls-18{fill:#d67369;}.cls-19{fill:#243e44;}.cls-20{fill:#f2f2f2;}.cls-21{fill:#ee7f70;}.cls-22{clip-path:url(#clip-path-4);}.cls-23{fill:#d3aa59;}.cls-24{clip-path:url(#clip-path-5);}.cls-25{fill:url(#linear-gradient-4);}.cls-26{stroke:#ccc;stroke-width:1.31px;}</style><linearGradient id="linear-gradient" x1="26.02" y1="101.63" x2="31.43" y2="103.51" gradientUnits="userSpaceOnUse"><stop offset="0" stop-color="#f29538"/><stop offset="1" stop-color="#eda74c"/></linearGradient><clipPath id="clip-path"><circle class="cls-1" cx="32.6" cy="92.04" r="12.04"/></clipPath><clipPath id="clip-path-2"><path class="cls-2" d="M30.06,108.78a65.06,65.06,0,0,0,2.67-10.56l-1.67-.55a58.13,58.13,0,0,1-2.53,9.81"/></clipPath><clipPath id="clip-path-3"><circle class="cls-1" cx="96.51" cy="32.6" r="12.04"/></clipPath><linearGradient id="linear-gradient-3" x1="82.85" y1="41.73" x2="91.47" y2="41.73" gradientUnits="userSpaceOnUse"><stop offset="0" stop-color="#d67369"/><stop offset="1" stop-color="#ee7f70"/></linearGradient><clipPath id="clip-path-4"><path class="cls-3" d="M99.17,47.11h0a1,1,0,0,0-1.37-.37l-3.32,1.92h0l-.57.33a2,2,0,0,0-1,2.13l.51,2.94a.77.77,0,0,0,.89.62l.35-.06a.88.88,0,0,0,.71-1L95,51.5a1.08,1.08,0,0,1,.52-1.12l3.29-1.9A1,1,0,0,0,99.17,47.11Z"/></clipPath><clipPath id="clip-path-5"><path class="cls-3" d="M105.22,47.11h0a1,1,0,0,0-1.37-.37l-3.32,1.92h0L100,49a2,2,0,0,0-1,2.13l.51,2.94a.77.77,0,0,0,.89.62l.35-.06a.88.88,0,0,0,.71-1L101,51.5a1.08,1.08,0,0,1,.52-1.12l3.29-1.9A1,1,0,0,0,105.22,47.11Z"/></clipPath><linearGradient id="linear-gradient-4" x1="87.34" y1="46.33" x2="98.86" y2="42.88" xlink:href="#linear-gradient-3"/></defs><path class="cls-4" d="M24.24,84.77c-1-12.36,5.55-28.5,18.36-42.14C57.7,26.55,76.82,18.9,89.81,22.56"/><circle class="cls-5" cx="65.86" cy="65.01" r="42.03"/><path class="cls-6" d="M79.46,94a5,5,0,1,1,0-10h23.78a41.92,41.92,0,0,0,4.11-13H79a5,5,0,0,1,0-10H90.92a5,5,0,0,0,5-5h0a5,5,0,0,0-5-5H74.56a5,5,0,0,1,0-10h25.65a42,42,0,0,0-59.59-9.63H55.36a5,5,0,0,1,0,10H31a41.77,41.77,0,0,0-5.78,12.47H49.18a5,5,0,0,1,0,10h-12a5,5,0,1,0,0,10H55a5,5,0,0,1,0,10H28.21A42,42,0,0,0,96.13,94Z"/><rect class="cls-7" x="62.9" y="38.78" width="19.65" height="8.13" rx="4.06" transform="translate(145.44 85.69) rotate(-180)"/><rect class="cls-7" x="52.6" y="76.9" width="19.65" height="8.13" rx="4.06" transform="translate(124.85 161.93) rotate(-180)"/><rect class="cls-7" x="31.62" y="49.41" width="19.65" height="8.13" rx="4.06" transform="translate(82.89 106.94) rotate(-180)"/><rect class="cls-7" x="83.54" y="58.48" width="19.65" height="8.13" rx="4.06" transform="translate(186.73 125.09) rotate(-180)"/><circle class="cls-7" cx="32.73" cy="92.04" r="12.04"/><circle class="cls-7" cx="96.51" cy="32.6" r="12.04"/><g class="cls-8"><path class="cls-9" d="M33.23,85.25a6.46,6.46,0,0,0-3,.74h0a1.67,1.67,0,0,1-1.3-.88.14.14,0,0,0-.24,0,1.91,1.91,0,0,0,0,1.57.14.14,0,0,1-.18.19,2.15,2.15,0,0,1-1.27-1.49.18.18,0,0,0-.34,0,3.79,3.79,0,0,0,.31,4h0a6.47,6.47,0,0,0-.5,2.49,6.54,6.54,0,1,0,6.54-6.54Z"/><path class="cls-10" d="M33.68,85.14a6.58,6.58,0,0,0-3,.73h0a1.66,1.66,0,0,1-1.3-.88.14.14,0,0,0-.25,0,2,2,0,0,0,0,1.57.14.14,0,0,1-.18.19,2.15,2.15,0,0,1-1.27-1.49.18.18,0,0,0-.34,0,3.79,3.79,0,0,0,.3,4h0a6.66,6.66,0,0,0-.49,2.49,6.54,6.54,0,1,0,6.54-6.54Z"/><circle class="cls-11" cx="31.79" cy="89.72" r="2.24"/><circle class="cls-11" cx="36.27" cy="89.05" r="2.24"/><path class="cls-11" d="M29.56,89.44h0a2.42,2.42,0,0,0-2.7.76l-.31.38"/><path class="cls-3" d="M39.49,95.17a3.51,3.51,0,0,1-3.05-2.28,1.14,1.14,0,0,0-2.19.47c0,2.46,3,6,4.91,5.93a2.08,2.08,0,1,0,0-4.15"/><path class="cls-2" d="M30.06,108.78a65.06,65.06,0,0,0,2.67-10.56l-1.67-.55a58.13,58.13,0,0,1-2.53,9.81"/><g class="cls-12"><path class="cls-13" d="M29,108.33a66.41,66.41,0,0,0,2.68-10.56L30,97.22A58.13,58.13,0,0,1,27.46,107"/><path class="cls-14" d="M19.09,114.9c-2.25-.78-4.16-2.64-5.56-6.13"/></g><ellipse class="cls-15" cx="32.96" cy="89.72" rx="0.45" ry="0.55" transform="translate(-13.9 6.41) rotate(-9.19)"/><ellipse class="cls-15" cx="35.09" cy="89.38" rx="0.45" ry="0.55" transform="translate(-13.82 6.75) rotate(-9.19)"/><path class="cls-7" d="M36.9,96.51a1.4,1.4,0,0,0,2.29.76.09.09,0,0,0,0-.17A6.25,6.25,0,0,1,37,96.4.1.1,0,0,0,36.9,96.51Z"/><rect class="cls-15" x="34.35" y="86.62" width="2.3" height="0.81" rx="0.4" transform="matrix(0.97, 0.26, -0.26, 0.97, 23.61, -6.21)"/><rect class="cls-15" x="29.77" y="86.91" width="2.3" height="0.81" rx="0.4" transform="matrix(0.97, -0.26, 0.26, 0.97, -21.44, 10.91)"/><path class="cls-14" d="M34.36,94.27c.14,1.77.84,2.92,2,3.42h-.06A8.36,8.36,0,0,1,34.36,94.27Z"/></g><g class="cls-16"><path class="cls-17" d="M87.48,44.67C84.94,43.91,83,42.56,82.86,41a1.56,1.56,0,0,1,1.62-1.62,11.07,11.07,0,0,0,5.43-1.23l1.56,7.09"/><path class="cls-18" d="M98.82,30c.15-.1.66,0,.66.21l-.17.49Z"/><path class="cls-18" d="M100.1,30.32c.15-.1.72-.1.64.27l-.15.43Z"/><path class="cls-18" d="M109,39.22c-4.09,2.35-6-.7-5.87-4.45V31.28a6.23,6.23,0,0,0-1.44-4h0a3.11,3.11,0,0,0,.62-1.9.19.19,0,0,0-.32-.14,4.05,4.05,0,0,1-1.46,1l-.22-.16a3.09,3.09,0,0,0,.19-1.11c0-.17-.92.38-1.2.56A6.2,6.2,0,0,0,96.82,25h0a6.28,6.28,0,0,0-6.28,6.28V41.86L103.35,50c4.83,0,7.23-3.48,8.08-8.91C111.68,39.5,110.38,38.41,109,39.22Z"/><path class="cls-15" d="M93.79,57.21A2.07,2.07,0,1,0,90,58.79l.13.44a.47.47,0,0,0,.55.31L96.79,58a.44.44,0,0,0,.32-.56l-.47-1.73a.47.47,0,0,0-.4-.33l-3-.26a.47.47,0,0,0-.47.29,1.69,1.69,0,0,1-.78,1"/><path class="cls-19" d="M89.87,58.53a2.07,2.07,0,0,1,1.21-2.45,2,2,0,0,1,2.08.27s0,.1,0,.08A2.46,2.46,0,0,0,89.87,58.53Z"/><path class="cls-20" d="M92.75,53.49h3.46a.53.53,0,0,1,.53.53v1.21a.52.52,0,0,1-.52.52H92.77a.54.54,0,0,1-.54-.54V54a.52.52,0,0,1,.52-.52Z" transform="translate(-8.61 18.8) rotate(-10.87)"/><path class="cls-21" d="M90.54,46.81A7.19,7.19,0,0,0,93.91,49l2.52.86a9.84,9.84,0,0,0,3,.19l.17-.36.38-.45.79-.51.64-.36,1.64-1"/><path class="cls-21" d="M108.23,39.18c-4,2.22-5.87-.8-5.76-4.52V31.17a6.3,6.3,0,0,0-1.43-4h0a3.22,3.22,0,0,0,.62-1.89.2.2,0,0,0-.33-.15,4,4,0,0,1-1.45,1h0a.38.38,0,0,1-.15-.41,3.56,3.56,0,0,0,.12-.85.2.2,0,0,0-.33-.15,6.56,6.56,0,0,1-.88.7,6.34,6.34,0,0,0-2.47-.5h0a6.28,6.28,0,0,0-6.28,6.27V41.75c3.75,4.1,7.33,8.7,12.8,8.26,4.81.07,7.2-3.43,8.09-9A1.76,1.76,0,0,0,108.23,39.18Z"/><ellipse class="cls-15" cx="92.25" cy="29.72" rx="0.44" ry="0.51"/><ellipse class="cls-15" cx="94.08" cy="29.79" rx="0.44" ry="0.51"/><rect class="cls-15" x="93.95" y="27.85" width="2" height="0.7" rx="0.16" transform="translate(10.46 -23.5) rotate(14.92)"/><rect class="cls-15" x="90.84" y="27.73" width="2" height="0.7" rx="0.16" transform="translate(187.82 31.55) rotate(165.08)"/><path class="cls-18" d="M89.91,36.68a3.46,3.46,0,0,0,3.86-3.47Z"/><path class="cls-3" d="M88.94,33.12a3.06,3.06,0,0,0,3.17-.86,1.09,1.09,0,0,1,1.09-.45c.52.2.71.77.57,1.49-.66,2.59-4.2,4.14-5.78,3.17a1.75,1.75,0,1,1,1.23-3.27"/><path class="cls-19" d="M90.14,59.33h0a.53.53,0,0,0,.65.34L97.13,58l-.19-.53Z"/><circle class="cls-18" cx="99.88" cy="29.28" r="0.63"/><circle class="cls-18" cx="98.83" cy="30.28" r="0.32"/><circle class="cls-18" cx="99.15" cy="34.3" r="0.32"/><path class="cls-15" d="M100.21,57.21a2.08,2.08,0,0,0-3.84,1.58l.14.44a.46.46,0,0,0,.55.31L103.2,58a.45.45,0,0,0,.33-.56l-.48-1.73a.46.46,0,0,0-.4-.33l-3-.26a.46.46,0,0,0-.46.29,1.67,1.67,0,0,1-.79,1"/><path class="cls-20" d="M99,53.56h3.46a.53.53,0,0,1,.53.53v1.21a.52.52,0,0,1-.52.52H99a.54.54,0,0,1-.54-.54V54.08a.52.52,0,0,1,.52-.52Z" transform="translate(-8.51 19.98) rotate(-10.87)"/><path class="cls-19" d="M96.51,59.19h0a.54.54,0,0,0,.65.34l6.22-1.63a.26.26,0,0,0,.19-.32l-.07-.29Z"/><path class="cls-7" d="M89,35.58a1.22,1.22,0,0,0,2-.75c0-.08-.06-.14-.12-.09a5.54,5.54,0,0,1-1.81.69A.08.08,0,0,0,89,35.58Z"/><path class="cls-19" d="M96.27,58.35s0,0,0,0A2.09,2.09,0,0,1,97.46,56a2,2,0,0,1,2.27.42s0,0,0,0A2.39,2.39,0,0,0,96.27,58.35Z"/><path class="cls-18" d="M89.94,40.75a35.81,35.81,0,0,0,.6,6.06c2.37,2.76,7.51,4,12.81,3.2-5.87-.56-10.89-2.23-11.65-9.38a.89.89,0,0,0-.88-.8h0A.88.88,0,0,0,89.94,40.75Z"/><path class="cls-3" d="M99.17,47.11h0a1,1,0,0,0-1.37-.37l-3.32,1.92h0l-.57.33a2,2,0,0,0-1,2.13l.51,2.94a.77.77,0,0,0,.89.62l.35-.06a.88.88,0,0,0,.71-1L95,51.5a1.08,1.08,0,0,1,.52-1.12l3.29-1.9A1,1,0,0,0,99.17,47.11Z"/><g class="cls-22"><path class="cls-23" d="M94.87,54.73l-.53-3.35A1.34,1.34,0,0,1,95,50l4.54-2.63.11,1.12-4.28,2.34.34,3.39Z"/></g><path class="cls-3" d="M105.22,47.11h0a1,1,0,0,0-1.37-.37l-3.32,1.92h0L100,49a2,2,0,0,0-1,2.13l.51,2.94a.77.77,0,0,0,.89.62l.35-.06a.88.88,0,0,0,.71-1L101,51.5a1.08,1.08,0,0,1,.52-1.12l3.29-1.9A1,1,0,0,0,105.22,47.11Z"/><g class="cls-24"><path class="cls-23" d="M100.92,54.73l-.53-3.35a1.34,1.34,0,0,1,.66-1.38l4.54-2.63.11,1.12-4.28,2.34.34,3.39Z"/></g><path class="cls-25" d="M102.88,45.86c-5.24,4-15.43,1.33-15.84-2.3A1.56,1.56,0,0,1,88.66,42a12,12,0,0,0,8.44-3.3"/><path class="cls-18" d="M102.92,45.91c-4.08,3.06-10,2.89-14.43.42a4.26,4.26,0,0,1-2-2.43,2.18,2.18,0,0,1,2.19-2.63,14.08,14.08,0,0,0,8.39-2.67c.06,0,.14,0,.09.1a11.11,11.11,0,0,1-6.54,3.8,14.3,14.3,0,0,1-2,.13c-.9,0-1.29.82-.72,1.67,1.76,2.34,5.06,3,7.92,3.21a11.17,11.17,0,0,0,7-1.7c.06-.05.14,0,.08.1Z"/></g><circle class="cls-26" cx="96.51" cy="32.6" r="12.04"/><path class="cls-4" d="M106.22,39.72c4.59,14.24-.8,33.49-15,48.59C74.58,106.05,51.45,112,36.54,103.42"/><circle class="cls-26" cx="32.73" cy="91.71" r="12.04"/></svg>