<svg id="Layer_1" data-name="Layer 1" xmlns="http://www.w3.org/2000/svg" xmlns:xlink="http://www.w3.org/1999/xlink" viewBox="0 0 129.36 128.96"><defs><style>.cls-1{fill:#4d4d4d;}.cls-2{fill:#def9f8;}.cls-3{fill:#f2c666;}.cls-4{clip-path:url(#clip-path);}.cls-5{fill:#424242;}.cls-6{clip-path:url(#clip-path-2);}.cls-7{fill:#b3e5e1;}.cls-8{clip-path:url(#clip-path-3);}.cls-9{fill:#7ac943;stroke:#7ac943;stroke-width:0.83px;}.cls-11,.cls-14,.cls-9{stroke-miterlimit:10;}.cls-10{fill:#f9f9f9;}.cls-11{fill:#e6e6e6;stroke:#e6e6e6;}.cls-11,.cls-14{stroke-width:0.96px;}.cls-12{clip-path:url(#clip-path-4);}.cls-13{fill:#cea763;opacity:0.21;}.cls-14{fill:#fff;stroke:#fff;}</style><clipPath id="clip-path"><rect class="cls-1" x="71.2" y="18.56" width="39.4" height="66.71" rx="4.21"/></clipPath><clipPath id="clip-path-2"><circle class="cls-2" cx="90.9" cy="79.22" r="2.62"/></clipPath><clipPath id="clip-path-3"><rect class="cls-2" x="74.43" y="22.45" width="33.08" height="51.62" rx="1.38"/></clipPath><clipPath id="clip-path-4"><path class="cls-3" d="M21.9,73.17H57.15a3.1,3.1,0,0,1,3.1,3.1v14a17.07,17.07,0,0,1-17.07,17.07h-7.3A17.07,17.07,0,0,1,18.8,90.3v-14A3.1,3.1,0,0,1,21.9,73.17Z"/></clipPath></defs><rect class="cls-1" x="71.2" y="18.56" width="39.4" height="66.71" rx="4.21"/><g class="cls-4"><rect class="cls-5" x="90.96" y="16.36" width="24.27" height="73.31"/></g><circle class="cls-2" cx="90.9" cy="79.22" r="2.62"/><g class="cls-6"><rect class="cls-7" x="90.9" y="74.81" width="4.02" height="9.34"/></g><rect class="cls-2" x="74.43" y="22.45" width="33.08" height="51.62" rx="1.38"/><g class="cls-8"><rect class="cls-7" x="90.96" y="19.24" width="18.5" height="56.03"/></g><circle class="cls-9" cx="90.32" cy="47.09" r="9.89"/><path class="cls-10" d="M95.3,43.62l-6,4.83a.65.65,0,0,1-.59.11L87,48a.82.82,0,0,0-.91.29h0a.84.84,0,0,0,.14,1.14l2.14,1.73a1.46,1.46,0,0,0,2-.12l6.05-6.27a.8.8,0,0,0,.07-1h0A.79.79,0,0,0,95.3,43.62Z"/><path class="cls-11" d="M53.76,60.08a14.24,14.24,0,1,0-28.47,0V73.17h3.65V60.08a10.59,10.59,0,1,1,21.17,0V73.17h3.65Z"/><path class="cls-3" d="M21.9,73.17H57.15a3.1,3.1,0,0,1,3.1,3.1v14a17.07,17.07,0,0,1-17.07,17.07h-7.3A17.07,17.07,0,0,1,18.8,90.3v-14A3.1,3.1,0,0,1,21.9,73.17Z"/><g class="cls-12"><path class="cls-13" d="M58.92,70.29c1.13,13.88-9.08,38.89-30.91,43.3l56.83-.9Z"/></g><path class="cls-14" d="M43.13,82.3a3.61,3.61,0,1,0-5.58,3l-.63,3.54a.67.67,0,0,0,.66.8h4a.69.69,0,0,0,.67-.8l-.67-3.61A3.61,3.61,0,0,0,43.13,82.3Z"/></svg>