<svg id="Layer_1" data-name="Layer 1" xmlns="http://www.w3.org/2000/svg" viewBox="0 0 129.36 128.96"><defs><style>.cls-1{fill:#f2f2f2;}.cls-2{fill:#ccc;}.cls-3{fill:#fff;}.cls-4{fill:#e6e6e6;}.cls-5{fill:#7ac943;}.cls-6{fill:none;stroke:#ccc;stroke-linecap:round;stroke-linejoin:round;stroke-width:1.93px;}.cls-7{fill:#ee7f70;}</style></defs><ellipse class="cls-1" cx="62.27" cy="55.78" rx="52.07" ry="13"/><ellipse class="cls-1" cx="62.27" cy="82.63" rx="52.07" ry="13"/><polygon class="cls-2" points="14.83 87.52 14.83 51.95 109.24 51.95 109.24 96.35 14.83 96.35 14.83 87.52"/><ellipse class="cls-3" cx="62.27" cy="26.24" rx="52.07" ry="13"/><path class="cls-4" d="M10.2,46.33c0,7.18,23.31,13,52.07,13s52.07-5.82,52.07-13V26.24c0,7.18-23.31,13-52.07,13s-52.07-5.82-52.07-13Z"/><path class="cls-4" d="M10.2,74.52c0,7.18,23.31,13,52.07,13s52.07-5.82,52.07-13V54.44c0,7.17-23.31,13-52.07,13s-52.07-5.82-52.07-13Z"/><path class="cls-4" d="M10.2,102.72c0,7.17,23.31,13,52.07,13s52.07-5.82,52.07-13V82.63c0,7.18-23.31,13-52.07,13s-52.07-5.82-52.07-13Z"/><circle class="cls-5" cx="17.55" cy="42.79" r="2.67"/><circle class="cls-5" cx="17.55" cy="72.3" r="2.67"/><circle class="cls-5" cx="17.55" cy="101.82" r="2.67"/><line class="cls-6" x1="72.14" y1="53.7" x2="84.45" y2="41.39"/><line class="cls-6" x1="80.15" y1="53.7" x2="92.46" y2="41.39"/><line class="cls-6" x1="88.61" y1="53.7" x2="100.92" y2="41.39"/><line class="cls-6" x1="72.14" y1="83.29" x2="84.45" y2="70.98"/><line class="cls-6" x1="80.15" y1="83.29" x2="92.46" y2="70.98"/><line class="cls-6" x1="88.61" y1="83.29" x2="100.92" y2="70.98"/><line class="cls-6" x1="72.14" y1="110.65" x2="84.45" y2="98.34"/><line class="cls-6" x1="80.15" y1="110.65" x2="92.46" y2="98.34"/><line class="cls-6" x1="88.61" y1="110.65" x2="100.92" y2="98.34"/><circle class="cls-7" cx="97.1" cy="35.39" r="12.16"/><path class="cls-3" d="M90.79,36.26V34.51c.86,0,1.22-.38,1.22-1,0-.79-.27-2.06-.27-3a2.2,2.2,0,0,1,2.45-2.31h.92V30h-.5c-.55,0-.77.25-.77.73,0,.69.22,2,.22,2.91a1.6,1.6,0,0,1-1.37,1.75v0a1.61,1.61,0,0,1,1.37,1.76c0,.9-.22,2.21-.22,2.9,0,.48.22.74.77.74h.5v1.79h-.92a2.2,2.2,0,0,1-2.45-2.31c0-1,.27-2.24.27-3C92,36.68,91.65,36.29,90.79,36.26Z"/><path class="cls-3" d="M102.74,37.24c0,.8.27,2.06.27,3a2.2,2.2,0,0,1-2.44,2.31h-.93V40.8h.5c.55,0,.77-.26.77-.74,0-.69-.22-2-.22-2.9a1.62,1.62,0,0,1,1.37-1.76v0a1.61,1.61,0,0,1-1.37-1.75c0-.9.22-2.22.22-2.91,0-.48-.22-.73-.77-.73h-.5V28.19h.93A2.2,2.2,0,0,1,103,30.5c0,1-.27,2.24-.27,3,0,.6.36.95,1.22,1v1.75C103.1,36.29,102.74,36.68,102.74,37.24Z"/></svg>