<svg xmlns="http://www.w3.org/2000/svg" xmlns:xlink="http://www.w3.org/1999/xlink" viewBox="0 0 286.18 393.43"><defs><style>.cls-1{fill:#e6e6e6;}.cls-2{fill:#ec5f62;stroke:#ec5f62;}.cls-10,.cls-14,.cls-2,.cls-3{stroke-miterlimit:10;stroke-width:0.95px;}.cls-3{fill:#fed06c;stroke:#fed06c;}.cls-14,.cls-4{fill:#fff;}.cls-5{fill:#999;}.cls-6{fill:#fefbfd;opacity:0.62;}.cls-7{fill:#d5c4e1;}.cls-8{fill:#b3b3b3;}.cls-9{clip-path:url(#clip-path);}.cls-10{fill:none;stroke:#b3b3b3;}.cls-11{fill:#9888bf;}.cls-12{fill:#f1e6f3;}.cls-13{fill:#d67369;}.cls-14{stroke:#000;}.cls-15{fill:url(#linear-gradient);}.cls-16{fill:#27464f;}.cls-17{fill:#f2c666;}.cls-18{fill:#f2f2f2;}.cls-19{fill:#f0e7f4;}.cls-20{clip-path:url(#clip-path-2);}.cls-21{fill:#c494c3;}.cls-22{clip-path:url(#clip-path-3);}.cls-23{fill:#3c63ac;}.cls-24{fill:#8e89c2;}</style><clipPath id="clip-path"><path class="cls-1" d="M158.14,258.8a7.7,7.7,0,0,1,5.83,8.47l-4.91,43.41a14.27,14.27,0,0,1-3.61,7.11h0l-18.19,16.5c-2.9,2.63-6.86,1.95-9.74-.68-3.32-3-3.79-7.24-.55-10.18l15.45-14a6.91,6.91,0,0,0,2.22-4.32l4.5-39.83A7.48,7.48,0,0,1,158.14,258.8Z"/></clipPath><linearGradient id="linear-gradient" x1="23.66" y1="166.05" x2="230.85" y2="166.05" gradientUnits="userSpaceOnUse"><stop offset="0" stop-color="#d67369"/><stop offset="1" stop-color="#ee7f70"/></linearGradient><clipPath id="clip-path-2"><path class="cls-1" d="M122.12,261.4a7.7,7.7,0,0,1,2.24,10l-20.78,38.42a14.29,14.29,0,0,1-6,5.25h0l-23,8.5c-3.66,1.35-7.08-.76-8.78-4.28-1.94-4-.8-8.13,3.3-9.64l19.57-7.22a6.86,6.86,0,0,0,3.67-3.18L111.36,264A7.47,7.47,0,0,1,122.12,261.4Z"/></clipPath><clipPath id="clip-path-3"><path class="cls-1" d="M125.33,285.49l25.77-33.16a71.74,71.74,0,0,1,47.83-27.17l12.32-1.53C206.63,270.82,176.06,289.31,125.33,285.49Z"/></clipPath></defs><g id="Layer_2" data-name="Layer 2"><g id="Layer_1-2" data-name="Layer 1"><path class="cls-2" d="M63.83,298C53,297,52.05,322.93,43,339.18a.36.36,0,0,0,.54.46c14.94-11.57,38.68-19.07,36.27-32.78"/><path class="cls-3" d="M68.08,300.08c-4.67-.4-5.09,10.81-9,17.84a.16.16,0,0,0,.23.2c6.47-5,16.74-8.25,15.7-14.19"/><path class="cls-4" d="M28.51,207.91H76a0,0,0,0,1,0,0v52.25a12.28,12.28,0,0,1-12.28,12.28H40.79a12.28,12.28,0,0,1-12.28-12.28V207.91a0,0,0,0,1,0,0Z" transform="translate(120.61 4.09) rotate(28.42)"/><path class="cls-4" d="M69.84,227.45H117.3a0,0,0,0,1,0,0V279.7A12.28,12.28,0,0,1,105,292H82.13A12.28,12.28,0,0,1,69.84,279.7V227.45A0,0,0,0,1,69.84,227.45Z" transform="translate(134.89 -13.23) rotate(28.42)"/><path class="cls-5" d="M67.88,284.4l-8.07,8.07a2.35,2.35,0,0,0,.51,3.71l20,11.17a2.34,2.34,0,0,0,3.33-1.19l4.13-10.56a2.34,2.34,0,0,0-1.07-2.91L70.65,284A2.33,2.33,0,0,0,67.88,284.4Z"/><circle class="cls-6" cx="187.85" cy="98.33" r="98.33"/><path class="cls-7" d="M125.71,358.68a.53.53,0,0,1,.25-1,15.47,15.47,0,0,1,11.6,6.39c4.56,6.39,2.12,13.58,1.89,14.22-2.1,7.15-7,12.07-14.25,15.16-16.9-4.71-31.43-27.95-31.49-35.75a164.13,164.13,0,0,1,18.68-24l22.92,14.18c-3.06,5.11-2.72,8.63-2,12C133.84,362.58,129.34,360.19,125.71,358.68Z"/><ellipse class="cls-8" cx="127.35" cy="335.37" rx="12.16" ry="15.45" transform="translate(-218.33 239.48) rotate(-53.7)"/><path class="cls-1" d="M158.14,258.8a7.7,7.7,0,0,1,5.83,8.47l-4.91,43.41a14.27,14.27,0,0,1-3.61,7.11h0l-18.19,16.5c-2.9,2.63-6.86,1.95-9.74-.68-3.32-3-3.79-7.24-.55-10.18l15.45-14a6.91,6.91,0,0,0,2.22-4.32l4.5-39.83A7.48,7.48,0,0,1,158.14,258.8Z"/><g class="cls-9"><path class="cls-10" d="M145.84,290.13c5-2.44,10.74-2.8,15.69,0"/><path class="cls-10" d="M144.71,299.84c5-2.43,10.84-2.8,15.79,0"/><path class="cls-10" d="M143,307.66a20,20,0,0,1,15.94,6.54"/><path class="cls-10" d="M137.79,313.62c5.47,1.18,10.33,3.9,12.53,9.13"/><path class="cls-10" d="M130.43,319.84A17.68,17.68,0,0,1,142.9,330.1"/></g><path class="cls-11" d="M126.9,357.78c5.55,2.57,9.47,6.4,10.83,12.19a1.86,1.86,0,0,1-1.46,2.24h0a1.83,1.83,0,0,1-2.09-1.31c-1.18-4.32-4.19-7.6-8.88-9.92a1.77,1.77,0,0,1-.81-2.32h0A1.8,1.8,0,0,1,126.9,357.78Z"/><path class="cls-11" d="M125.2,393.43c-11-2.07-32.49-26.75-31.49-35.75l1.39-2.17c3.45,14.18,14.61,26.71,31.87,37.1Z"/><path class="cls-12" d="M187.38,238.8l22.67-74a102.39,102.39,0,0,0,51-5.46c7.78-2.66,17.12,1.24,18.89,9.27,3,13.81-9.54,31.26-29.41,45.42C227.39,229.3,206,238.63,187.38,238.8Z"/><path class="cls-13" d="M154.07,52.86c-1.8-2.91-8.75-3.4-9.09,1l.93,6.87Z"/><path class="cls-13" d="M137.2,53.9c-1.55-2.86-9-4.06-9.46,1.67l.8,6Z"/><path class="cls-13" d="M46.12,170.67c32.88,28.42,52.63.91,58.22-33.17l2.83-14.58,1-5.15,2.29-11.8a57.5,57.5,0,0,1,20-33.57l-.19,0A29.07,29.07,0,0,1,128,54.21a1.77,1.77,0,0,1,3.18-.71c3.83,5.14,8.14,9.87,11.44,11.25.77-.36,1.52-.75,2.31-1.08a31.4,31.4,0,0,1,.18-10.35c.26-1.53,7.72,5,10,7.16a57.36,57.36,0,0,1,23.18-.24h0A57.8,57.8,0,0,1,223.94,128l-4.05,20.87-12.14,62.56-2.34,12.1L83.12,271.71"/><path class="cls-14" d="M193.07,267c-7.65,7.78-19.69,14.87-30.59,15l-24.33,3.32c-7.9.66-17.4-1-27.48-3.53l-1-3.54-2.62-4.75-6.28-6-5.09-4.42L82.55,251.74"/><path class="cls-15" d="M50.26,168.34c32.36,27.12,54.39,3,59.93-30.73L113,123l1-5.14,2.29-11.8a57.56,57.56,0,0,1,20-33.58l-.18,0a29,29,0,0,1-2.28-18.18,1.78,1.78,0,0,1,3.19-.76c3.82,5.15,8.13,9.87,11.44,11.26h0a3.55,3.55,0,0,0,2-3.45,32.08,32.08,0,0,1,.45-7.93,1.78,1.78,0,0,1,3.18-.76,62.76,62.76,0,0,0,6.78,7.87,57.71,57.71,0,0,1,23.18-.24h0a57.8,57.8,0,0,1,45.73,67.75L225.73,149,213.6,211.54l-2.35,12.09c-37.73,34.42-79.14,68.59-130.14,52.27-43.57-7.88-59-43.7-57.32-95.52C24.23,167,40,159.74,50.26,168.34Z"/><path class="cls-7" d="M104.49,156.31c-9.5,22.62-28.79,33.75-54.69,12-10.26-8.6-26-1.34-26.48,12C21.6,232.2,37.08,268,80.65,275.9c51,16.32,92.87-17.85,130.6-52.27l5.15-25.38C170,209.37,132,194.49,104.49,156.31Z"/><ellipse class="cls-16" cx="211.23" cy="110.87" rx="4.7" ry="4.07" transform="translate(62.16 297.12) rotate(-79.02)"/><ellipse class="cls-16" cx="194.57" cy="108.27" rx="4.7" ry="4.07" transform="translate(51.23 278.66) rotate(-79.02)"/><rect class="cls-16" x="180.21" y="89.11" width="18.45" height="6.45" rx="3.23" transform="translate(384.78 171.43) rotate(176.05)"/><rect class="cls-16" x="208.56" y="93.49" width="18.45" height="6.45" rx="3.23" transform="translate(64.13 -85.42) rotate(25.9)"/><path class="cls-13" d="M220.14,177.8c-19.72-1-33-21.17-28.76-38Z"/><path class="cls-17" d="M235.19,147.34c-11.18,1.27-23.22-5-27.14-13.29-2.09-3.39-5.36-6.56-9.06-5.93-5,.85-7.76,5.64-7.76,12.45,1.41,24.51,30.62,44.75,46.61,38.76,9.11-1.53,15.29-9.88,13.81-18.65s-10.05-14.63-19.16-13.1"/><circle class="cls-13" cx="143.02" cy="93.48" r="5.83"/><circle class="cls-13" cx="150.76" cy="104.39" r="2.92"/><circle class="cls-13" cx="138.99" cy="107.66" r="4.27"/><path class="cls-18" d="M230.48,169.51c-7.43,3.14-15.39-.09-16.4-10.21a.75.75,0,0,1,1.27-.62,50.24,50.24,0,0,0,15.14,9.45A.74.74,0,0,1,230.48,169.51Z"/><path class="cls-7" d="M211.51,222.3c-2.65,11.65-4.2,15.06-7.38,25.38a50.34,50.34,0,0,1-34,33.66c-26.59,7.64-61.3,5.63-94.83-6.56"/><path class="cls-19" d="M102.81,152.42C89.45,145,82.53,137.57,72.71,123.2c-4.8-6.67-14.68-8.89-20.77-3.37-24.88,22.55,3.66,98.7,61.47,116.43C134.76,242,138.47,205.44,139,188"/><path class="cls-7" d="M57,338.58a.54.54,0,0,1,.7-.8,15.47,15.47,0,0,1,7.35,11c1.13,7.77-4.33,13-4.83,13.51-5.14,5.4-11.76,7.52-19.61,7C27.71,357.28,25.44,330,29,323a164,164,0,0,1,27.58-12.76l13.89,23.11c-5.06,3.14-6.38,6.43-7.3,9.73C62.39,345.72,59.5,341.58,57,338.58Z"/><ellipse class="cls-8" cx="66.18" cy="319.75" rx="12.16" ry="15.45" transform="translate(-158.36 82.67) rotate(-31.75)"/><path class="cls-1" d="M122.12,261.4a7.7,7.7,0,0,1,2.24,10l-20.78,38.42a14.29,14.29,0,0,1-6,5.25h0l-23,8.5c-3.66,1.35-7.08-.76-8.78-4.28-1.94-4-.8-8.13,3.3-9.64l19.57-7.22a6.86,6.86,0,0,0,3.67-3.18L111.36,264A7.47,7.47,0,0,1,122.12,261.4Z"/><g class="cls-20"><path class="cls-10" d="M108.48,268.67a16.82,16.82,0,0,1,14.29,6.61"/><path class="cls-10" d="M103.51,277a17.57,17.57,0,0,1,14.65,6.68"/><path class="cls-10" d="M99.34,285.39a17.16,17.16,0,0,1,14.42,6.68"/><path class="cls-10" d="M94.86,293.82c5.6-.15,10.82,1.57,14.2,6.13"/><path class="cls-10" d="M82.05,304.35c4.79,3.31,8.11,8.26,7.91,14.47"/><path class="cls-10" d="M71.45,308.3c4.8,3.3,7.78,8.1,7.58,14.31"/><path class="cls-10" d="M90.49,301a18,18,0,0,1,11.82,11.28"/></g><path class="cls-11" d="M58.42,338.29c3.75,4.83,5.49,10,4,15.79a1.85,1.85,0,0,1-2.32,1.33h0a1.83,1.83,0,0,1-1.26-2.12c.93-4.38-.25-8.68-3.35-12.88a1.78,1.78,0,0,1,.34-2.45h0A1.82,1.82,0,0,1,58.42,338.29Z"/><path class="cls-11" d="M38.79,369.27c-8.48-6.6-15.48-38.44-10.69-45.68l2.14-1.23c-3.28,13.59.27,30.55,10.42,47Z"/><path class="cls-4" d="M101.64,92.29a85.89,85.89,0,0,1,8.74-32.7,5.17,5.17,0,0,1,6.52-2.47h0a5.18,5.18,0,0,1,2.74,7.13A75.6,75.6,0,0,0,112,93.06a5.16,5.16,0,0,1-5.17,4.8h0A5.21,5.21,0,0,1,101.64,92.29Z"/><path class="cls-21" d="M216.05,192.44c-42.73,11.37-86.65-3.88-111.32-41.71a2.66,2.66,0,0,0-4.58.19h0a2.69,2.69,0,0,0,0,2.47C121,194,170,213.05,215.54,199.49a4.28,4.28,0,0,0,3-3.54l.15-1.16A2.15,2.15,0,0,0,216.05,192.44Z"/><path class="cls-1" d="M125.33,285.49l25.77-33.16a71.74,71.74,0,0,1,47.83-27.17l12.32-1.53C206.63,270.82,176.06,289.31,125.33,285.49Z"/><g class="cls-22"><path class="cls-10" d="M136.09,270.47c20,5.27,40.12,8.26,52.33,2.17"/><path class="cls-10" d="M143,260.87c20,5.26,42.73,8.95,54.94,2.86"/><path class="cls-10" d="M151,251.36c20,5.27,40.19,9.53,52.41,3.44"/><path class="cls-10" d="M159.75,242.16c17.06,4.5,35.5,7.24,47.36,4.11"/><path class="cls-10" d="M172.73,233.06c12,3,26.78,5.22,36.7,4.32"/><path class="cls-10" d="M129.37,279.17c9.16,2.41,21,4.88,29,5.62"/></g><circle class="cls-23" cx="175.41" cy="216.51" r="7.12"/><circle class="cls-11" cx="197.89" cy="214.96" r="5.23"/><rect class="cls-19" x="34.14" y="193.23" width="20.38" height="16.82" rx="1.19" transform="translate(155.57 27.71) rotate(45)"/><path class="cls-24" d="M43.14,195.93a2.85,2.85,0,0,0,.56-3.34c-1-.61-1.68.56-2.07,1.22a5.55,5.55,0,0,0-.3,3.33c-.28-.59-.55-.62-.47,0a6.46,6.46,0,0,0,.46,2.19c-1-.29.59,1.38.11,1.79-.3.46,1.28,1.55.43,1.28.13.84,1.42,1.38,1,1.94a8.8,8.8,0,0,0,1.84,2.2c-1.15-2.52-2.46-5.15-2.57-7.76,0-.42.14-1.08.12-.28.24,3.86,2.37,7.72,4.73,11.18.22.48,1.07,1.69,1.29.81A11.56,11.56,0,0,1,46,207.8c-.48-1.32.31-2.34.12-3.61-.14-.56-.14-2.35-.82-1.58.33-.46-.14-2.39-.72-1.36-.23.18.06-1-.05-1.34s0-1.77-.26-1.83c-.15.35-1.33,1-.64.26a1.91,1.91,0,0,0,.59-2.09c0-.52-.18-1.32-.63-.65l-.43.33"/><path class="cls-2" d="M21.39,278c-10.8-.92-11.78,25-20.87,41.23a.37.37,0,0,0,.54.47C16,308.11,39.74,300.61,37.33,286.89"/><path class="cls-3" d="M25.64,280.11c-4.67-.4-5.09,10.81-9,17.84a.16.16,0,0,0,.24.2c6.46-5,16.73-8.25,15.69-14.19"/><path class="cls-5" d="M27.78,263.63,18.44,273a2.31,2.31,0,0,0,.5,3.65L39,287.83a2.31,2.31,0,0,0,3.28-1.17l4.89-12.53Z"/></g></g></svg>