<svg id="Layer_1" data-name="Layer 1" xmlns="http://www.w3.org/2000/svg" viewBox="0 0 129.36 128.96"><defs><style>.cls-1{fill:#f2f2f2;}.cls-2{fill:#ccc;}.cls-3{fill:#fff;}.cls-4{fill:#e6e6e6;}.cls-5{fill:#7ac943;}.cls-6{fill:none;stroke:#ccc;stroke-linecap:round;stroke-linejoin:round;stroke-width:1.93px;}</style></defs><ellipse class="cls-1" cx="67.19" cy="60.78" rx="52.07" ry="13"/><ellipse class="cls-1" cx="67.19" cy="87.62" rx="52.07" ry="13"/><polygon class="cls-2" points="19.75 92.52 19.75 56.94 114.16 56.94 114.16 101.35 19.75 101.35 19.75 92.52"/><ellipse class="cls-3" cx="67.19" cy="31.24" rx="52.07" ry="13"/><path class="cls-4" d="M15.12,51.33c0,7.17,23.31,13,52.07,13s52.07-5.82,52.07-13V31.24c0,7.18-23.32,13-52.07,13s-52.07-5.82-52.07-13Z"/><path class="cls-4" d="M15.12,79.52c0,7.18,23.31,13,52.07,13s52.07-5.82,52.07-13V59.43c0,7.18-23.32,13-52.07,13s-52.07-5.82-52.07-13Z"/><path class="cls-4" d="M15.12,107.71c0,7.18,23.31,13,52.07,13s52.07-5.82,52.07-13V87.62c0,7.18-23.32,13-52.07,13s-52.07-5.82-52.07-13Z"/><circle class="cls-5" cx="22.47" cy="47.78" r="2.67"/><circle class="cls-5" cx="22.47" cy="77.3" r="2.67"/><circle class="cls-5" cx="22.47" cy="106.82" r="2.67"/><line class="cls-6" x1="77.06" y1="58.7" x2="89.37" y2="46.39"/><line class="cls-6" x1="85.06" y1="58.7" x2="97.38" y2="46.39"/><line class="cls-6" x1="93.53" y1="58.7" x2="105.84" y2="46.39"/><line class="cls-6" x1="77.06" y1="88.29" x2="89.37" y2="75.97"/><line class="cls-6" x1="85.06" y1="88.29" x2="97.38" y2="75.97"/><line class="cls-6" x1="93.53" y1="88.29" x2="105.84" y2="75.97"/><line class="cls-6" x1="77.06" y1="115.64" x2="89.37" y2="103.33"/><line class="cls-6" x1="85.06" y1="115.64" x2="97.38" y2="103.33"/><line class="cls-6" x1="93.53" y1="115.64" x2="105.84" y2="103.33"/></svg>