<svg id="Layer_1" data-name="Layer 1" xmlns="http://www.w3.org/2000/svg" xmlns:xlink="http://www.w3.org/1999/xlink" viewBox="0 0 129.36 128.96"><defs><style>.cls-1,.cls-27{fill:none;}.cls-2{fill:#f2c666;}.cls-3{clip-path:url(#clip-path);}.cls-4{stroke:#d67369;stroke-width:0.93px;fill:url(#linear-gradient);}.cls-27,.cls-4{stroke-linecap:round;stroke-linejoin:round;}.cls-5{fill:#d67369;}.cls-6{fill:#f2f2f2;}.cls-7{fill:#ee7f70;}.cls-8{fill:#27464f;}.cls-9{fill:#fff;}.cls-10{clip-path:url(#clip-path-2);}.cls-11{fill:#d3aa59;}.cls-12{clip-path:url(#clip-path-3);}.cls-13{fill:#cccbca;}.cls-14,.cls-18{fill:#e6e6e6;}.cls-15{fill:#dddad9;}.cls-16{fill:url(#radial-gradient);}.cls-17{fill:url(#linear-gradient-2);}.cls-18{stroke:#e6e6e6;stroke-miterlimit:10;stroke-width:1.05px;}.cls-19{clip-path:url(#clip-path-4);}.cls-20{fill:#bedbda;}.cls-21{fill:#2e454e;}.cls-22{fill:#2a3d43;}.cls-23{fill:#f1f1f1;}.cls-24{clip-path:url(#clip-path-5);}.cls-25{clip-path:url(#clip-path-6);}.cls-26{fill:#cbcbcb;}.cls-27{stroke:#2e454e;stroke-width:0.4px;}.cls-28{fill:#c8ebea;}.cls-29{fill:#eac775;}.cls-30{fill:#d85e59;}.cls-31{fill:#606060;opacity:0.44;}.cls-32{fill:#c75955;}.cls-33{fill:url(#radial-gradient-2);}</style><clipPath id="clip-path"><circle class="cls-1" cx="25.93" cy="88.82" r="22.94"/></clipPath><linearGradient id="linear-gradient" x1="-3312.95" y1="106.18" x2="-3296.53" y2="106.18" gradientTransform="matrix(-1, 0, 0, 1, -3269.5, 0)" gradientUnits="userSpaceOnUse"><stop offset="0" stop-color="#d67369"/><stop offset="1" stop-color="#ee7f70"/></linearGradient><clipPath id="clip-path-2"><path class="cls-2" d="M12.37,116.43h0a1.92,1.92,0,0,1,2.61-.7l6.32,3.65h0l1.1.63a3.92,3.92,0,0,1,1.89,4.06l-1,5.6a1.46,1.46,0,0,1-1.69,1.19l-.67-.12a1.68,1.68,0,0,1-1.35-2l.72-4a2,2,0,0,0-1-2.13L13.07,119A1.91,1.91,0,0,1,12.37,116.43Z"/></clipPath><clipPath id="clip-path-3"><path class="cls-2" d="M.85,116.43h0a1.92,1.92,0,0,1,2.61-.7l6.32,3.65h0l1.09.63a3.92,3.92,0,0,1,1.9,4.06l-1,5.6a1.46,1.46,0,0,1-1.69,1.19l-.67-.12a1.68,1.68,0,0,1-1.35-2l.72-4a2,2,0,0,0-1-2.13L1.55,119A1.9,1.9,0,0,1,.85,116.43Z"/></clipPath><radialGradient id="radial-gradient" cx="-3308.12" cy="102.48" r="34.45" gradientTransform="matrix(-1, 0, 0, 1, -3269.5, 0)" gradientUnits="userSpaceOnUse"><stop offset="0" stop-color="#55fffc" stop-opacity="0.6"/><stop offset="0.05" stop-color="#55fffc" stop-opacity="0.54"/><stop offset="0.2" stop-color="#55fffc" stop-opacity="0.37"/><stop offset="0.35" stop-color="#55fffc" stop-opacity="0.24"/><stop offset="0.51" stop-color="#55fffc" stop-opacity="0.13"/><stop offset="0.67" stop-color="#55fffc" stop-opacity="0.06"/><stop offset="0.83" stop-color="#55fffc" stop-opacity="0.01"/><stop offset="1" stop-color="#55fffc" stop-opacity="0"/></radialGradient><linearGradient id="linear-gradient-2" x1="-3304.41" y1="114.96" x2="-3282.45" y2="108.38" xlink:href="#linear-gradient"/><clipPath id="clip-path-4"><circle class="cls-1" cx="89.5" cy="41.91" r="36.87"/></clipPath><clipPath id="clip-path-5"><path class="cls-1" d="M96.75,97.23h5.4a0,0,0,0,1,0,0v10.15a1.77,1.77,0,0,1-1.77,1.77H98.51a1.77,1.77,0,0,1-1.77-1.77V97.23A0,0,0,0,1,96.75,97.23Z"/></clipPath><clipPath id="clip-path-6"><path class="cls-1" d="M118.37,97.23h5.4a0,0,0,0,1,0,0v10.15a1.77,1.77,0,0,1-1.77,1.77h-1.87a1.77,1.77,0,0,1-1.77-1.77V97.23A0,0,0,0,1,118.37,97.23Z"/></clipPath><radialGradient id="radial-gradient-2" cx="66.94" cy="60.87" r="46.91" gradientTransform="matrix(1, 0, 0, 1, 0, 0)" xlink:href="#radial-gradient"/></defs><g class="cls-3"><path class="cls-4" d="M34.64,111.78c4.84-1.45,8.47-4,8.8-6.93a3,3,0,0,0-3.08-3.08A21.13,21.13,0,0,1,30,99.43l-3,13.5"/><path class="cls-5" d="M13,83.85c-.29-.19-1.26-.07-1.26.39l.32.94Z"/><path class="cls-5" d="M10.6,84.45c-.29-.2-1.38-.2-1.22.51l.28.82Z"/><path class="cls-5" d="M-6.3,101.41c7.8,4.48,11.4-1.33,11.19-8.48V86.29a11.9,11.9,0,0,1,2.73-7.61l0,0a6,6,0,0,1-1.17-3.62A.36.36,0,0,1,7,74.81a7.6,7.6,0,0,0,2.77,1.84,4.25,4.25,0,0,1,.43-.31,6.39,6.39,0,0,1-.37-2.11c0-.32,1.76.71,2.3,1.06a11.86,11.86,0,0,1,4.7-1h0a12,12,0,0,1,12,12v20.13L4.4,122c-9.19,0-13.77-6.64-15.38-17C-11.46,101.94-9,99.87-6.3,101.41Z"/><path class="cls-6" d="M18,128.59h6.58a1,1,0,0,1,1,1v2.3a1,1,0,0,1-1,1H18a1,1,0,0,1-1-1v-2.3a1,1,0,0,1,1-1Z" transform="translate(17.53 263.16) rotate(-169.13)"/><path class="cls-7" d="M28.81,115.86A13.64,13.64,0,0,1,22.4,120l-4.81,1.64a18.2,18.2,0,0,1-5.73.36l-.33-.68-.72-.86-1.51-1-1.21-.69L5,117"/><path class="cls-7" d="M-4.88,101.33c7.64,4.23,11.17-1.53,11-8.61V86.08a12,12,0,0,1,2.73-7.61l0,0A5.94,5.94,0,0,1,7.6,74.88a.36.36,0,0,1,.61-.27A7.69,7.69,0,0,0,11,76.44h0a.73.73,0,0,0,.27-.78A6.59,6.59,0,0,1,11,74a.36.36,0,0,1,.61-.28,13.4,13.4,0,0,0,1.69,1.33,11.86,11.86,0,0,1,4.7-1h0a12,12,0,0,1,12,12v20.14C22.86,114,16,122.8,5.62,122c-9.16.12-13.71-6.55-15.41-17.14A3.36,3.36,0,0,1-4.88,101.33Z"/><ellipse class="cls-8" cx="25.55" cy="83.31" rx="0.84" ry="0.97"/><ellipse class="cls-8" cx="22.07" cy="83.44" rx="0.84" ry="0.97"/><rect class="cls-8" x="18.49" y="79.74" width="3.82" height="1.34" rx="0.31" transform="matrix(-0.97, 0.26, -0.26, -0.97, 60.81, 152.85)"/><rect class="cls-8" x="24.42" y="79.51" width="3.82" height="1.34" rx="0.31" transform="translate(21.54 -4.08) rotate(14.92)"/><path class="cls-5" d="M30,96.56A6.58,6.58,0,0,1,22.66,90Z"/><path class="cls-2" d="M31.86,89.78a5.83,5.83,0,0,1-6-1.63c-.56-.61-1.35-1.13-2.07-.85-1,.37-1.36,1.45-1.09,2.83,1.25,4.93,8,7.89,11,6a3.33,3.33,0,1,0-2.34-6.24"/><circle class="cls-5" cx="11.01" cy="82.47" r="1.21"/><circle class="cls-5" cx="13.01" cy="84.38" r="0.6"/><circle class="cls-5" cx="12.4" cy="92.03" r="0.62"/><path class="cls-6" d="M6.08,128.73h6.58a1,1,0,0,1,1,1V132a1,1,0,0,1-1,1H6a1,1,0,0,1-1-1v-2.3a1,1,0,0,1,1-1Z" transform="translate(-6.14 261.18) rotate(-169.13)"/><path class="cls-9" d="M31.78,94.47A2.33,2.33,0,0,1,28,93a.16.16,0,0,1,.23-.18,10.32,10.32,0,0,0,3.45,1.32A.16.16,0,0,1,31.78,94.47Z"/><path class="cls-5" d="M30,104.31a68.34,68.34,0,0,1-1.15,11.55c-4.52,5.25-14.31,7.7-24.41,6.1,11.2-1.06,20.75-4.25,22.2-17.86a1.69,1.69,0,0,1,1.67-1.52h0A1.68,1.68,0,0,1,30,104.31Z"/><path class="cls-2" d="M12.37,116.43h0a1.92,1.92,0,0,1,2.61-.7l6.32,3.65h0l1.1.63a3.92,3.92,0,0,1,1.89,4.06l-1,5.6a1.46,1.46,0,0,1-1.69,1.19l-.67-.12a1.68,1.68,0,0,1-1.35-2l.72-4a2,2,0,0,0-1-2.13L13.07,119A1.91,1.91,0,0,1,12.37,116.43Z"/><g class="cls-10"><path class="cls-11" d="M20.56,130.94l1-6.38a2.58,2.58,0,0,0-1.25-2.62l-8.65-5-.22,2.13,8.17,4.46L19,130Z"/></g><path class="cls-2" d="M.85,116.43h0a1.92,1.92,0,0,1,2.61-.7l6.32,3.65h0l1.09.63a3.92,3.92,0,0,1,1.9,4.06l-1,5.6a1.46,1.46,0,0,1-1.69,1.19l-.67-.12a1.68,1.68,0,0,1-1.35-2l.72-4a2,2,0,0,0-1-2.13L1.55,119A1.9,1.9,0,0,1,.85,116.43Z"/><g class="cls-12"><path class="cls-11" d="M9,130.94l1-6.38a2.56,2.56,0,0,0-1.25-2.62l-8.65-5-.22,2.13,8.17,4.46L7.43,130Z"/></g><path class="cls-13" d="M42.72,107.74l.52-11.21a.73.73,0,0,0-.72-.76l-7.81-.13a.89.89,0,0,0-.9.85l-.87,16.81Z"/><path class="cls-14" d="M43.53,108.43,44,97.23a.73.73,0,0,0-.71-.77l-8.11-.13a.59.59,0,0,0-.59.55L33.75,114Z"/><path class="cls-13" d="M43,96l.81.68a.94.94,0,0,0-.6-.18Z"/><rect class="cls-15" x="41.59" y="97.24" width="2.02" height="3.91" rx="1.01" transform="translate(80.87 200.15) rotate(-177.52)"/><circle class="cls-14" cx="42.64" cy="98.26" r="0.69"/><circle class="cls-14" cx="42.56" cy="100.04" r="0.69"/><path class="cls-16" d="M42.54,95.76l-7.8-.13a.89.89,0,0,0-.91.85l-.72,14-7.59,4.28C9.42,118-.92,105.33,0,95.26L6.24,68.69l26.23-2.83C38.8,63.62,47.84,76.71,48,84.6Z"/><path class="cls-17" d="M5.31,114.06c10,7.56,29.38,2.53,30.16-4.38a3,3,0,0,0-3.08-3.08c-6.51.16-11.58-2.38-16.09-6.27"/><path class="cls-5" d="M5.38,114c5.87,4,13.51,3.91,20.1,2.13,2.84-.76,9.63-3.63,8.65-7.22a2,2,0,0,0-1.74-1,22.19,22.19,0,0,1-3.71-.26,21.12,21.12,0,0,1-12.46-7.22.14.14,0,0,1,0-.18c4,2.26,8.14,4.59,12.79,4.94a28.45,28.45,0,0,0,3.34.12,4.46,4.46,0,0,1,4,2.53,4.59,4.59,0,0,1-.74,4.46c-4,4.93-10.94,6-16.93,6.15-4.76-.09-9.68-1.26-13.46-4.29-.11-.09,0-.29.15-.19Z"/></g><path class="cls-18" d="M75.71,118.62a52.61,52.61,0,0,0,29.88-13.9,1.55,1.55,0,0,0-.16-2.3l-2.7-2.36a1.72,1.72,0,0,0-2.38,0A48,48,0,0,1,75.62,114"/><path class="cls-18" d="M75.74,123.13l.42-13.5a1,1,0,0,0-1.52-.8l-8,6a.83.83,0,0,0,0,1.28l7.61,7.52A.89.89,0,0,0,75.74,123.13Z"/><path class="cls-18" d="M33.31,38.45A52.64,52.64,0,0,0,3.43,52.35a1.55,1.55,0,0,0,.17,2.3L6.29,57a1.73,1.73,0,0,0,2.38,0,48.06,48.06,0,0,1,24.74-13.9"/><path class="cls-18" d="M33.28,33.93l-.42,13.51a1,1,0,0,0,1.53.8l8-6a.83.83,0,0,0,0-1.28l-7.6-7.52A.9.9,0,0,0,33.28,33.93Z"/><g class="cls-19"><path class="cls-20" d="M83.81,53.07c-6.51,9.29-15.25,13.17-26,12.21a2.46,2.46,0,0,0-2.41,3.54C60,77.87,75.6,80.05,85.14,73.14"/><path class="cls-21" d="M96.36,112.91a5.39,5.39,0,0,0-10.23,2.37v2.43h17.34v-9l-8.91,1-1.48.46"/><path class="cls-22" d="M86.13,117.71h17.34a0,0,0,0,1,0,0v1.91a.51.51,0,0,1-.51.51H87.11a1,1,0,0,1-1-1v-1.44A0,0,0,0,1,86.13,117.71Z"/><path class="cls-22" d="M94.88,111.06a5.32,5.32,0,0,0-8.61,3C88.2,111.14,91,110,94.88,111.06Z"/><path class="cls-21" d="M117.74,113.12a5.39,5.39,0,0,0-10.23,2.36v2.44h17.34v-9l-8.91,1-1.48.46"/><path class="cls-22" d="M107.51,117.92h17.34a0,0,0,0,1,0,0v1.91a.51.51,0,0,1-.51.51H108.49a1,1,0,0,1-1-1v-1.44A0,0,0,0,1,107.51,117.92Z"/><path class="cls-22" d="M116.26,111.27a5.32,5.32,0,0,0-8.61,3C109.58,111.35,112.39,110.23,116.26,111.27Z"/><path class="cls-23" d="M95.39,106.45h7.44a1.73,1.73,0,0,1,1.73,1.73v1.88a1.81,1.81,0,0,1-1.81,1.81H95.47a1.81,1.81,0,0,1-1.81-1.81v-1.88A1.73,1.73,0,0,1,95.39,106.45Z"/><path class="cls-23" d="M117.17,106.82h7.44a1.73,1.73,0,0,1,1.73,1.73v1.88a1.81,1.81,0,0,1-1.81,1.81h-7.28a1.81,1.81,0,0,1-1.81-1.81v-1.88a1.73,1.73,0,0,1,1.73-1.73Z"/><g class="cls-24"><path class="cls-1" d="M101.88,109.15h0c-1.49,0-2.89,2.17-2.89.67l.19-12.59h5.41v9.22A2.7,2.7,0,0,1,101.88,109.15Z"/></g><g class="cls-25"><path class="cls-1" d="M123.53,108.55h0c-1.49,0-2.9,2.17-2.9.68l.2-12.59h5.4v9.21A2.7,2.7,0,0,1,123.53,108.55Z"/></g><path class="cls-26" d="M101.62,43.58h8.11a6.72,6.72,0,0,0,6.71-6.71v-11a5.6,5.6,0,0,0-5.6-5.6l-1.65.17-8.08-.17H86.77a4.11,4.11,0,0,0-4.11,4.11V42.84h3.2v5.31L82.9,57V84A13.19,13.19,0,0,0,96.1,97.23h30.32A2.55,2.55,0,0,0,129,94.68h0l-18.42-46V43.52"/><circle class="cls-27" cx="90.11" cy="26.57" r="7.45"/><path class="cls-27" d="M112.48,26.57A7.46,7.46,0,1,1,105,19.11a7.47,7.47,0,0,1,7.46,7.46Z"/><path class="cls-9" d="M82.9,83.43h4.89A11.36,11.36,0,0,0,99.16,72.07V51.51L82.91,54.9Z"/><path class="cls-28" d="M111.25,49.79a15.09,15.09,0,0,1,19.68,8.29c4.15,9.76-1.84,28-23,36.08A13.2,13.2,0,0,1,90.7,86.91c-4.61-9.28,7.73-31.19,20.22-37Z"/><path class="cls-29" d="M86.71,31.9H82.56A7.54,7.54,0,0,0,76.45,35l-.23.32c-.16.24-.74,1.22-1.37,2.29A44.59,44.59,0,0,0,71.75,44L70,48.42c-.26,1.27-.2,2.64.92,3.31a2.5,2.5,0,0,0,3.55-1.07h0a13.25,13.25,0,0,1,12-7.57h.26a5.6,5.6,0,0,0,5.6-5.59h0A5.6,5.6,0,0,0,86.71,31.9Z"/><path class="cls-27" d="M112.48,26.57h4.93a3.36,3.36,0,0,1,3.36,3.35h0"/><path class="cls-9" d="M79.33,41c2.51,1.69,5.68,1.06,6.78-2.59a.29.29,0,0,0-.43-.32,18.93,18.93,0,0,1-6.26,2.4A.28.28,0,0,0,79.33,41Z"/><ellipse class="cls-21" cx="92.8" cy="28.56" rx="1.35" ry="1.66"/><ellipse class="cls-21" cx="99.92" cy="28.56" rx="1.35" ry="1.66"/><rect class="cls-21" x="100.17" y="19.42" width="6.93" height="2.42" rx="0.65" transform="translate(8.81 -25.99) rotate(14.92)"/><rect class="cls-21" x="86.4" y="20.3" width="6.93" height="2.42" rx="0.65" transform="translate(-2.51 23.87) rotate(-14.92)"/><path class="cls-30" d="M95,46.33h4.25a2.4,2.4,0,0,1,2.4,2.4v6.19a2.51,2.51,0,0,1-2.51,2.51H95a.71.71,0,0,1-.71-.71V47.06a.73.73,0,0,1,.73-.73Z" transform="translate(195.92 103.75) rotate(-180)"/><path class="cls-30" d="M80.93,46.33h4.17a2.51,2.51,0,0,1,2.51,2.51V55a2.4,2.4,0,0,1-2.4,2.4H81a.73.73,0,0,1-.73-.73V47A.71.71,0,0,1,80.93,46.33Z"/><path class="cls-31" d="M82.9,57V84c0,8.26,6.28,13.46,13.2,13.19C87.48,92.67,84.08,77.14,82.9,57Z"/><circle class="cls-32" cx="90.65" cy="51.88" r="4.15"/><path class="cls-13" d="M61.33,68l-.7-15.26a1,1,0,0,1,1-1l10.63-.17a1.22,1.22,0,0,1,1.24,1.15l1.17,22.89Z"/><path class="cls-14" d="M60.23,68.94l-.7-15.26a1,1,0,0,1,1-1l11-.18a.8.8,0,0,1,.8.75l1.19,23.31Z"/><path class="cls-13" d="M61,52l-1.1.93a1.2,1.2,0,0,1,.81-.25Z"/><rect class="cls-15" x="60.12" y="53.7" width="2.75" height="5.33" rx="1.37" transform="translate(-2.38 2.71) rotate(-2.48)"/><circle class="cls-14" cx="61.44" cy="55.09" r="0.94"/><circle class="cls-14" cx="61.54" cy="57.51" r="0.94"/><path class="cls-33" d="M61.61,51.72l10.63-.18a1.21,1.21,0,0,1,1.23,1.16l1,19,10.34,5.84c21.92,4.42,36-12.78,34.72-26.49L111,14.86,75.32,11C66.7,8,54.4,25.77,54.14,36.52Z"/><path class="cls-28" d="M102.9,55.27c-7.85,9.29-18.39,13.17-31.35,12.21-2.29-.17-3.93,1.83-2.9,3.54,5.5,9,24.36,11.23,35.85,4.32"/></g></svg>