<svg id="Layer_1" data-name="Layer 1" xmlns="http://www.w3.org/2000/svg" xmlns:xlink="http://www.w3.org/1999/xlink" viewBox="0 0 129.36 128.96"><defs><style>.cls-1,.cls-30{fill:none;}.cls-2{fill:#f2c666;}.cls-3{clip-path:url(#clip-path);}.cls-4{fill:#d67369;}.cls-5{fill:#ee7f70;}.cls-6{fill:#2e3192;}.cls-7{clip-path:url(#clip-path-2);}.cls-8{stroke:#d67369;stroke-width:1.47px;fill:url(#linear-gradient);}.cls-30,.cls-8{stroke-linecap:round;stroke-linejoin:round;}.cls-9{fill:#27464f;}.cls-10{fill:#243e44;}.cls-11{fill:#f2f2f2;}.cls-12{fill:#fff;}.cls-13{clip-path:url(#clip-path-3);}.cls-14{fill:#d3aa59;}.cls-15{clip-path:url(#clip-path-4);}.cls-16{fill:#cccbca;}.cls-17,.cls-21{fill:#e6e6e6;}.cls-18{fill:#dddad9;}.cls-19{fill:url(#radial-gradient);}.cls-20{fill:url(#linear-gradient-2);}.cls-21{stroke:#e6e6e6;stroke-miterlimit:10;stroke-width:1.03px;}.cls-22{clip-path:url(#clip-path-5);}.cls-23{fill:#cbcbcb;}.cls-24{fill:#bedbda;}.cls-25{fill:#2e454e;}.cls-26{fill:#2a3d43;}.cls-27{fill:#f1f1f1;}.cls-28{clip-path:url(#clip-path-6);}.cls-29{clip-path:url(#clip-path-7);}.cls-30{stroke:#2e454e;stroke-width:0.24px;}.cls-31{fill:#c8ebea;}.cls-32{fill:#eac775;}.cls-33{fill:#d85e59;}.cls-34{fill:#606060;opacity:0.44;}.cls-35{fill:#c75955;}.cls-36{fill:url(#radial-gradient-2);}</style><clipPath id="clip-path"><circle class="cls-1" cx="-82.29" cy="67.51" r="53.31"/></clipPath><clipPath id="clip-path-2"><circle class="cls-1" cx="89.42" cy="40.42" r="36.03"/></clipPath><linearGradient id="linear-gradient" x1="-3685.17" y1="67.69" x2="-3659.37" y2="67.69" gradientTransform="matrix(-1, 0, 0, 1, -3568.22, 0)" gradientUnits="userSpaceOnUse"><stop offset="0" stop-color="#d67369"/><stop offset="1" stop-color="#ee7f70"/></linearGradient><clipPath id="clip-path-3"><path class="cls-2" d="M68.11,83.79h0a3,3,0,0,1,4.1-1.1l9.93,5.73h0l1.72,1a6.14,6.14,0,0,1,3,6.37L85.3,104.6a2.29,2.29,0,0,1-2.66,1.85l-1-.19a2.63,2.63,0,0,1-2.13-3.06l1.13-6.29a3.2,3.2,0,0,0-1.54-3.33l-9.85-5.69A3,3,0,0,1,68.11,83.79Z"/></clipPath><clipPath id="clip-path-4"><path class="cls-2" d="M50,83.79h0a3,3,0,0,1,4.1-1.1L64,88.42h0l1.72,1a6.14,6.14,0,0,1,3,6.37L67.2,104.6a2.29,2.29,0,0,1-2.66,1.85l-1.05-.19a2.65,2.65,0,0,1-2.13-3.06l1.14-6.29A3.19,3.19,0,0,0,61,93.58l-9.84-5.69A3,3,0,0,1,50,83.79Z"/></clipPath><radialGradient id="radial-gradient" cx="-3677.58" cy="61.88" r="54.13" gradientTransform="matrix(-1, 0, 0, 1, -3568.22, 0)" gradientUnits="userSpaceOnUse"><stop offset="0" stop-color="#55fffc" stop-opacity="0.6"/><stop offset="0.05" stop-color="#55fffc" stop-opacity="0.54"/><stop offset="0.2" stop-color="#55fffc" stop-opacity="0.37"/><stop offset="0.35" stop-color="#55fffc" stop-opacity="0.24"/><stop offset="0.51" stop-color="#55fffc" stop-opacity="0.13"/><stop offset="0.67" stop-color="#55fffc" stop-opacity="0.06"/><stop offset="0.83" stop-color="#55fffc" stop-opacity="0.01"/><stop offset="1" stop-color="#55fffc" stop-opacity="0"/></radialGradient><linearGradient id="linear-gradient-2" x1="-3671.75" y1="81.47" x2="-3637.25" y2="71.14" xlink:href="#linear-gradient"/><clipPath id="clip-path-5"><circle class="cls-1" cx="27.28" cy="86.58" r="22.42"/></clipPath><clipPath id="clip-path-6"><path class="cls-1" d="M31.69,120.22H35a0,0,0,0,1,0,0v6.17a1.07,1.07,0,0,1-1.07,1.07H32.76a1.07,1.07,0,0,1-1.07-1.07v-6.17a0,0,0,0,1,0,0Z"/></clipPath><clipPath id="clip-path-7"><path class="cls-1" d="M44.83,120.22h3.29a0,0,0,0,1,0,0v6.17A1.07,1.07,0,0,1,47,127.47H45.91a1.07,1.07,0,0,1-1.07-1.07v-6.17A0,0,0,0,1,44.83,120.22Z"/></clipPath><radialGradient id="radial-gradient-2" cx="13.56" cy="98.11" r="28.53" gradientTransform="matrix(1, 0, 0, 1, 0, 0)" xlink:href="#radial-gradient"/></defs><g class="cls-3"><path class="cls-4" d="M-3.89,98.5C-22.44,109.15-31,95.34-30.5,78.35V62.55A28.27,28.27,0,0,0-37,44.47l.09,0a14.33,14.33,0,0,0,2.8-8.59.88.88,0,0,0-1.47-.65c-2.33,2.13-4.85,4-6.58,4.37-.33-.25-.66-.51-1-.74a15.44,15.44,0,0,0,.88-5c0-.76-4.2,1.7-5.47,2.52a28.53,28.53,0,0,0-11.18-2.28h0A28.43,28.43,0,0,0-87.37,62.55v47.88l58,36.94c21.86.1,32.76-15.79,36.58-40.35C8.36,99.76,2.48,94.84-3.89,98.5Z"/><path class="cls-5" d="M-7.27,98.32c-18.17,10.06-26.55-3.64-26.07-20.46V62.06A28.31,28.31,0,0,0-39.83,44l.08,0a14.25,14.25,0,0,0,2.81-8.57.88.88,0,0,0-1.47-.66c-2.33,2.13-4.85,4-6.58,4.36h0a1.74,1.74,0,0,1-.65-1.86,16.24,16.24,0,0,0,.53-3.87.87.87,0,0,0-1.47-.66,31.55,31.55,0,0,1-4,3.16,28.26,28.26,0,0,0-11.17-2.28h0A28.43,28.43,0,0,0-90.21,62.06v47.88c15,20.16,31.8,40.54,58,37.43,21.78.28,32.61-15.57,36.64-40.76A8,8,0,0,0-7.27,98.32Z"/><polygon class="cls-6" points="7.37 10.59 7.37 10.59 7.37 10.59 7.37 10.59"/></g><g class="cls-7"><path class="cls-8" d="M103.1,76.48c7.6-2.27,13.3-6.32,13.82-10.88.3-2.66-2.17-4.84-4.84-4.84a33.3,33.3,0,0,1-16.27-3.68L91.15,78.29"/><path class="cls-4" d="M69.15,32.61c-.45-.31-2-.11-2,.6l.51,1.49Z"/><path class="cls-4" d="M65.33,33.55c-.46-.31-2.16-.31-1.91.8l.43,1.29Z"/><path class="cls-4" d="M38.78,60.19c12.25,7,17.9-2.09,17.58-13.32V36.44a18.74,18.74,0,0,1,4.29-12l-.06,0a9.45,9.45,0,0,1-1.85-5.68.58.58,0,0,1,1-.42c1.54,1.4,3.21,2.64,4.35,2.88l.67-.49a10.23,10.23,0,0,1-.59-3.31c0-.51,2.78,1.12,3.62,1.67a18.77,18.77,0,0,1,7.39-1.51h0A18.79,18.79,0,0,1,93.94,36.44V68.07L55.6,92.48C41.16,92.54,34,82.05,31.42,65.82,30.68,61,34.57,57.77,38.78,60.19Z"/><path class="cls-9" d="M84.21,114a6.2,6.2,0,1,1,11.46,4.72l-.4,1.33a1.36,1.36,0,0,1-1.64.91l-18.39-4.73a1.37,1.37,0,0,1-1-1.69l1.43-5.16a1.37,1.37,0,0,1,1.2-1l9-.77a1.33,1.33,0,0,1,1.39.86,5.09,5.09,0,0,0,2.36,2.83"/><path class="cls-10" d="M95.93,118a6.18,6.18,0,0,0-3.63-7.32,5.83,5.83,0,0,0-6.21.8.14.14,0,0,0,.14.25C91.15,109.72,95.41,113.86,95.93,118Z"/><path class="cls-11" d="M77,102.9H87.31a1.56,1.56,0,0,1,1.56,1.56v3.61a1.6,1.6,0,0,1-1.6,1.6H76.91a1.55,1.55,0,0,1-1.55-1.55V104.5a1.6,1.6,0,0,1,1.6-1.6Z" transform="translate(142.71 226.14) rotate(-169.13)"/><path class="cls-5" d="M93.94,82.9c-2,2.49-6.61,5.79-10.08,6.52L76.3,92a29,29,0,0,1-9,.57l-.52-1.07-1.13-1.35-2.37-1.52-1.9-1.1-4.91-2.84"/><path class="cls-5" d="M41,60.07c12,6.65,17.54-2.41,17.22-13.52V36.11a18.71,18.71,0,0,1,4.29-11.95l-.05,0a9.41,9.41,0,0,1-1.86-5.66.58.58,0,0,1,1-.44c1.54,1.41,3.21,2.65,4.35,2.89h0a1.16,1.16,0,0,0,.43-1.22A10.31,10.31,0,0,1,66,17.18a.58.58,0,0,1,1-.44,20.46,20.46,0,0,0,2.65,2.09A18.69,18.69,0,0,1,77,17.32h0A18.79,18.79,0,0,1,95.81,36.11V67.75C84.6,80,73.87,93.79,57.51,92.48,43.12,92.67,36,82.19,33.3,65.55A5.28,5.28,0,0,1,41,60.07Z"/><ellipse class="cls-9" cx="88.82" cy="31.76" rx="1.32" ry="1.53"/><ellipse class="cls-9" cx="83.34" cy="31.96" rx="1.32" ry="1.53"/><rect class="cls-9" x="77.72" y="26.15" width="6" height="2.1" rx="0.49" transform="translate(165.72 32.69) rotate(165.08)"/><rect class="cls-9" x="87.04" y="25.79" width="6" height="2.1" rx="0.49" transform="translate(9.95 -22.28) rotate(14.92)"/><path class="cls-4" d="M95.81,52.57A10.33,10.33,0,0,1,84.28,42.21Z"/><path class="cls-2" d="M98.73,41.92C95.24,43,91,41.75,89.24,39.35c-.88-1-2.11-1.76-3.26-1.33-1.55.58-2.12,2.28-1.7,4.46,2,7.73,12.54,12.38,17.27,9.48a5.24,5.24,0,1,0-3.67-9.8"/><path class="cls-10" d="M95.13,120.36h0a1.62,1.62,0,0,1-1.93,1l-19-5,.56-1.58Z"/><circle class="cls-4" cx="65.98" cy="30.43" r="1.9"/><circle class="cls-4" cx="69.12" cy="33.43" r="0.95"/><circle class="cls-4" cx="68.16" cy="45.45" r="0.97"/><path class="cls-9" d="M65,114a6.2,6.2,0,1,1,11.46,4.72l-.4,1.33a1.36,1.36,0,0,1-1.64.91L56,116.24a1.37,1.37,0,0,1-1-1.69l1.43-5.16a1.37,1.37,0,0,1,1.2-1l9-.77a1.33,1.33,0,0,1,1.39.86,5.09,5.09,0,0,0,2.36,2.83"/><path class="cls-11" d="M58.22,103.11H68.57a1.56,1.56,0,0,1,1.56,1.56v3.61a1.6,1.6,0,0,1-1.6,1.6H58.17a1.55,1.55,0,0,1-1.55-1.55v-3.61a1.6,1.6,0,0,1,1.6-1.6Z" transform="translate(105.53 223.02) rotate(-169.13)"/><path class="cls-10" d="M76.07,119.94h0a1.61,1.61,0,0,1-1.93,1L55.5,116.08a.79.79,0,0,1-.57-1l.22-.86Z"/><path class="cls-12" d="M98.6,49.28c-2.18,1.47-4.92.93-5.87-2.24a.25.25,0,0,1,.37-.28,16.25,16.25,0,0,0,5.41,2.08A.24.24,0,0,1,98.6,49.28Z"/><path class="cls-10" d="M76.77,117.44a.05.05,0,0,0,.1,0c.88-2.53-1.15-5.92-3.64-6.94s-4.52-.67-6.8,1.27a0,0,0,0,0,0,.08C71.61,109.27,76.12,113.22,76.77,117.44Z"/><path class="cls-4" d="M95.74,64.75a107.15,107.15,0,0,1-1.8,18.15C86.83,91.14,71.46,95,55.6,92.48,73.18,90.8,88.18,85.8,90.47,64.41A2.65,2.65,0,0,1,93.1,62h0A2.65,2.65,0,0,1,95.74,64.75Z"/><path class="cls-2" d="M68.11,83.79h0a3,3,0,0,1,4.1-1.1l9.93,5.73h0l1.72,1a6.14,6.14,0,0,1,3,6.37L85.3,104.6a2.29,2.29,0,0,1-2.66,1.85l-1-.19a2.63,2.63,0,0,1-2.13-3.06l1.13-6.29a3.2,3.2,0,0,0-1.54-3.33l-9.85-5.69A3,3,0,0,1,68.11,83.79Z"/><g class="cls-13"><path class="cls-14" d="M81,106.59l1.58-10a4,4,0,0,0-2-4.12L67,84.58l-.35,3.33,12.83,7-1,10.13Z"/></g><path class="cls-2" d="M50,83.79h0a3,3,0,0,1,4.1-1.1L64,88.42h0l1.72,1a6.14,6.14,0,0,1,3,6.37L67.2,104.6a2.29,2.29,0,0,1-2.66,1.85l-1.05-.19a2.65,2.65,0,0,1-2.13-3.06l1.14-6.29A3.19,3.19,0,0,0,61,93.58l-9.84-5.69A3,3,0,0,1,50,83.79Z"/><g class="cls-15"><path class="cls-14" d="M62.88,106.59l1.58-10a4,4,0,0,0-2-4.12L48.9,84.58l-.34,3.33,12.83,7-1,10.13Z"/></g><path class="cls-16" d="M115.79,70.14l.81-17.61a1.14,1.14,0,0,0-1.12-1.19l-12.27-.2a1.39,1.39,0,0,0-1.42,1.33l-1.36,26.41Z"/><path class="cls-17" d="M117.06,71.23l.81-17.61a1.14,1.14,0,0,0-1.12-1.2L104,52.21a.92.92,0,0,0-.93.87L101.7,80Z"/><path class="cls-16" d="M116.21,51.63l1.27,1.08a1.32,1.32,0,0,0-.94-.29Z"/><rect class="cls-18" x="114.02" y="53.64" width="3.17" height="6.15" rx="1.59" transform="translate(228.64 118.38) rotate(-177.52)"/><circle class="cls-17" cx="115.67" cy="55.25" r="1.09"/><circle class="cls-17" cx="115.54" cy="58.03" r="1.09"/><path class="cls-19" d="M115.51,51.32l-12.26-.2a1.4,1.4,0,0,0-1.43,1.33L100.7,74.36,88.77,81.08C63.48,86.19,47.23,66.35,48.71,50.53L58.48,8.79,99.69,4.35c9.94-3.52,24.14,17,24.44,29.44Z"/><path class="cls-20" d="M57,80.06c15.66,11.88,46.16,4,47.38-6.88.29-2.65-2.17-4.83-4.84-4.83-10.22.25-18.19-3.75-25.27-9.86"/><path class="cls-4" d="M57.14,79.9c9.17,6.16,21.23,6.18,31.56,3.36,5.16-1.62,11.06-3.87,13.52-8.86a3,3,0,0,0,.07-2.48,3.2,3.2,0,0,0-2.72-1.54A34.69,34.69,0,0,1,93.74,70,33.27,33.27,0,0,1,74.16,58.64c-.14-.16.07-.43.26-.3,6.11,3.9,12.65,7.1,19.84,7.77a48.2,48.2,0,0,0,5.26.2c3.29,0,6.57,2.51,6.76,6C105.87,83.38,86.84,87.21,78.05,87c-7.49-.13-15.25-2-21.15-6.74a.2.2,0,0,1,.24-.31Z"/></g><path class="cls-21" d="M75.94,115.71a51.42,51.42,0,0,0,29.2-13.59,1.52,1.52,0,0,0-.16-2.25l-2.63-2.3a1.69,1.69,0,0,0-2.33,0,47,47,0,0,1-24.18,13.58"/><path class="cls-21" d="M76,120.12l.42-13.2a1,1,0,0,0-1.49-.78L67,112a.81.81,0,0,0,0,1.25l7.44,7.35A.86.86,0,0,0,76,120.12Z"/><path class="cls-21" d="M34.49,37.35A51.42,51.42,0,0,0,5.29,50.94a1.52,1.52,0,0,0,.16,2.25l2.63,2.3a1.7,1.7,0,0,0,2.33,0A46.93,46.93,0,0,1,34.59,41.88"/><path class="cls-21" d="M34.47,32.94l-.41,13.2a1,1,0,0,0,1.49.78l7.84-5.85a.82.82,0,0,0,0-1.26L36,32.46A.87.87,0,0,0,34.47,32.94Z"/><g class="cls-22"><path class="cls-23" d="M56.8,98a7.55,7.55,0,0,1,2.25-2.33,2.34,2.34,0,0,1,3.66,1.6,13.18,13.18,0,0,1-3.34,11.22"/><path class="cls-24" d="M23.82,93.37c-4,5.65-9.27,8-15.81,7.42A1.49,1.49,0,0,0,6.55,103c2.77,5.5,12.28,6.82,18.08,2.62"/><path class="cls-25" d="M31.45,129.76a3.28,3.28,0,0,0-6.22,1.44v1.48H35.78V127.2l-5.42.58-.9.28"/><path class="cls-26" d="M30.55,128.63a3.24,3.24,0,0,0-5.24,1.84A4.35,4.35,0,0,1,30.55,128.63Z"/><path class="cls-25" d="M44.46,129.88a3.28,3.28,0,0,0-6.23,1.44v1.48H48.78v-5.48l-5.42.59-.9.28"/><path class="cls-26" d="M43.55,128.76a3.23,3.23,0,0,0-5.23,1.83A4.33,4.33,0,0,1,43.55,128.76Z"/><path class="cls-27" d="M30.86,125.83h4.52a1.05,1.05,0,0,1,1.05,1.05V128a1.1,1.1,0,0,1-1.1,1.1H30.91a1.1,1.1,0,0,1-1.1-1.1v-1.14a1.05,1.05,0,0,1,1.05-1.05Z"/><path class="cls-27" d="M44.11,126.06h4.52a1.05,1.05,0,0,1,1.05,1.05v1.14a1.1,1.1,0,0,1-1.1,1.1H44.16a1.1,1.1,0,0,1-1.1-1.1v-1.14A1.05,1.05,0,0,1,44.11,126.06Z"/><g class="cls-28"><path class="cls-1" d="M34.81,127.47h0c-.91,0-1.76,1.32-1.76.41l.12-7.66h3.29v5.61A1.64,1.64,0,0,1,34.81,127.47Z"/></g><g class="cls-29"><path class="cls-1" d="M48,127.11h0c-.9,0-1.76,1.31-1.76.41l.12-7.66h3.29v5.61A1.65,1.65,0,0,1,48,127.11Z"/></g><path class="cls-23" d="M34.65,87.6h4.93a4.08,4.08,0,0,0,4.08-4.08V76.8a3.41,3.41,0,0,0-3.4-3.41l-1,.1-4.92-.1H25.62a2.5,2.5,0,0,0-2.5,2.5V87.15h1.95v3.22l-1.8,5.37V112.2a8,8,0,0,0,8,8H49.73a1.55,1.55,0,0,0,1.56-1.55h0l-11.2-28V87.56"/><circle class="cls-30" cx="27.65" cy="77.25" r="4.53"/><path class="cls-30" d="M41.25,77.25a4.53,4.53,0,1,1-6.91-3.86,4.58,4.58,0,0,1,2.38-.67,4.51,4.51,0,0,1,4.53,4.53Z"/><path class="cls-12" d="M23.27,111.83h3a6.91,6.91,0,0,0,6.91-6.91V92.42l-9.89,2.06Z"/><path class="cls-31" d="M40.51,91.37a9.2,9.2,0,0,1,12,5c2.52,5.94-1.13,17-14,22A8,8,0,0,1,28,114c-2.8-5.65,4.7-19,12.3-22.49Z"/><path class="cls-32" d="M25.59,80.5H23.06a4.59,4.59,0,0,0-3.72,1.89l-.13.2c-.1.14-.45.74-.84,1.39a28.25,28.25,0,0,0-1.89,3.87l-1.05,2.69a1.76,1.76,0,0,0,.56,2,1.52,1.52,0,0,0,2.16-.65h0a8.06,8.06,0,0,1,7.28-4.6h.16A3.4,3.4,0,0,0,29,83.9h0A3.4,3.4,0,0,0,25.59,80.5Z"/><path class="cls-30" d="M41.25,77.25h3a2,2,0,0,1,2,2h0"/><path class="cls-12" d="M21.09,86a2.57,2.57,0,0,0,4.13-1.58.17.17,0,0,0-.26-.19,11.57,11.57,0,0,1-3.81,1.46A.17.17,0,0,0,21.09,86Z"/><ellipse class="cls-25" cx="29.29" cy="78.47" rx="0.82" ry="1.01"/><ellipse class="cls-25" cx="33.62" cy="78.47" rx="0.82" ry="1.01"/><rect class="cls-25" x="33.77" y="72.91" width="4.21" height="1.47" rx="0.4" transform="matrix(0.97, 0.26, -0.26, 0.97, 20.18, -6.75)"/><rect class="cls-25" x="25.4" y="73.44" width="4.21" height="1.47" rx="0.4" transform="translate(-18.18 9.59) rotate(-14.92)"/><path class="cls-33" d="M30.63,89.27h2.59a1.46,1.46,0,0,1,1.46,1.46v3.77A1.53,1.53,0,0,1,33.14,96H30.61a.43.43,0,0,1-.43-.43V89.71A.45.45,0,0,1,30.63,89.27Z" transform="translate(64.85 185.29) rotate(-180)"/><path class="cls-33" d="M22.07,89.27H24.6a1.53,1.53,0,0,1,1.53,1.53v3.77A1.46,1.46,0,0,1,24.67,96H22.08a.45.45,0,0,1-.45-.45V89.7a.43.43,0,0,1,.43-.43Z"/><path class="cls-34" d="M23.27,95.74V112.2a7.69,7.69,0,0,0,8,8C26.05,117.45,24,108,23.27,95.74Z"/><circle class="cls-35" cx="27.98" cy="92.64" r="2.52"/><path class="cls-16" d="M10.15,102.45l-.43-9.28a.61.61,0,0,1,.6-.63l6.46-.11a.74.74,0,0,1,.75.7l.72,13.92Z"/><path class="cls-17" d="M9.48,103l-.42-9.28a.6.6,0,0,1,.59-.63L16.36,93a.49.49,0,0,1,.49.46l.73,14.17Z"/><path class="cls-16" d="M9.93,92.69l-.67.57a.69.69,0,0,1,.5-.15Z"/><rect class="cls-18" x="9.42" y="93.75" width="1.67" height="3.24" rx="0.84" transform="translate(-4.11 0.53) rotate(-2.48)"/><circle class="cls-17" cx="10.22" cy="94.6" r="0.57"/><circle class="cls-17" cx="10.28" cy="96.07" r="0.57"/><path class="cls-36" d="M10.32,92.55l6.46-.11a.74.74,0,0,1,.76.7l.59,11.55,6.29,3.54c13.33,2.7,21.89-7.76,21.11-16.1l-5.15-22L18.66,67.79c-5.24-1.85-12.73,9-12.88,15.52Z"/><path class="cls-31" d="M35.43,94.71c-4.77,5.65-11.18,8-19.06,7.42-1.4-.1-2.4,1.12-1.77,2.15,3.35,5.51,14.81,6.83,21.8,2.63"/></g></svg>