<svg id="Layer_1" data-name="Layer 1" xmlns="http://www.w3.org/2000/svg" xmlns:xlink="http://www.w3.org/1999/xlink" viewBox="0 0 129.36 128.96"><defs><style>.cls-1{fill:#4d4d4d;}.cls-2{fill:#def9f8;}.cls-3{clip-path:url(#clip-path);}.cls-4{fill:#424242;}.cls-5{clip-path:url(#clip-path-2);}.cls-6{clip-path:url(#clip-path-3);}.cls-7{fill:#b3e5e1;}.cls-8{clip-path:url(#clip-path-4);}.cls-10,.cls-9{fill:#f7931e;stroke:#f7931e;stroke-miterlimit:10;}.cls-9{stroke-width:1.09px;}.cls-10{stroke-width:1.07px;}.cls-11{clip-path:url(#clip-path-5);}.cls-12{clip-path:url(#clip-path-6);}.cls-13{clip-path:url(#clip-path-7);}</style><clipPath id="clip-path"><path class="cls-1" d="M68.72,20.23h-47a.48.48,0,0,0-.48.47V46.27a.48.48,0,0,0,.48.47H42v3.89H38.15a.58.58,0,0,0-.57.57.57.57,0,0,0,.57.57H52.3a.57.57,0,0,0,.57-.57.58.58,0,0,0-.57-.57H48.44V46.74H68.72a.47.47,0,0,0,.47-.47V20.7A.47.47,0,0,0,68.72,20.23Z"/></clipPath><clipPath id="clip-path-2"><rect class="cls-1" x="99.17" y="49.91" width="19.8" height="33.53" rx="2.12"/></clipPath><clipPath id="clip-path-3"><circle class="cls-2" cx="109.07" cy="80.39" r="1.31"/></clipPath><clipPath id="clip-path-4"><rect class="cls-2" x="22.96" y="21.87" width="44.41" height="23.19"/></clipPath><clipPath id="clip-path-5"><rect class="cls-2" x="100.79" y="51.86" width="16.62" height="25.94" rx="0.69"/></clipPath><clipPath id="clip-path-6"><circle class="cls-2" cx="71.72" cy="99.83" r="1.31"/></clipPath><clipPath id="clip-path-7"><rect class="cls-2" x="41.63" y="84.33" width="24" height="31" rx="0.91" transform="translate(-46.2 153.45) rotate(-90)"/></clipPath></defs><path class="cls-1" d="M68.72,20.23h-47a.48.48,0,0,0-.48.47V46.27a.48.48,0,0,0,.48.47H42v3.89H38.15a.58.58,0,0,0-.57.57.57.57,0,0,0,.57.57H52.3a.57.57,0,0,0,.57-.57.58.58,0,0,0-.57-.57H48.44V46.74H68.72a.47.47,0,0,0,.47-.47V20.7A.47.47,0,0,0,68.72,20.23Z"/><g class="cls-3"><rect class="cls-4" x="45.22" y="19.28" width="27.01" height="36.23"/></g><rect class="cls-1" x="99.17" y="49.91" width="19.8" height="33.53" rx="2.12"/><g class="cls-5"><rect class="cls-4" x="109.1" y="48.8" width="12.2" height="36.84"/></g><circle class="cls-2" cx="109.07" cy="80.39" r="1.31"/><g class="cls-6"><rect class="cls-7" x="109.07" y="78.17" width="2.02" height="4.69"/></g><rect class="cls-1" x="41.33" y="80.83" width="27.75" height="38" rx="2.04" transform="translate(-44.62 155.03) rotate(-90)"/><rect class="cls-2" x="22.96" y="21.87" width="44.41" height="23.19"/><g class="cls-8"><rect class="cls-7" x="45.16" y="19.77" width="23.65" height="26.83"/></g><path class="cls-9" d="M103.06,38.27A40.55,40.55,0,0,0,82.83,22.88a1.2,1.2,0,0,0-1.51.94l-.64,2.68a1.35,1.35,0,0,0,.88,1.62A37,37,0,0,1,99.93,40"/><path class="cls-9" d="M106.13,36.63,96.76,41.2a.76.76,0,0,0,0,1.33l7,3.32a.64.64,0,0,0,.89-.43l2.4-7.89A.69.69,0,0,0,106.13,36.63Z"/><path class="cls-10" d="M87.87,106.52a43.23,43.23,0,0,0,21.86-14.88,1.29,1.29,0,0,0-.3-1.84l-2.23-1.58a1.3,1.3,0,0,0-1.82.32,40.11,40.11,0,0,1-17.92,14.24"/><path class="cls-10" d="M88.22,110.16l-.66-11a.73.73,0,0,0-1.23-.46l-5.71,5.82a.7.7,0,0,0,.07,1l6.37,5.16A.71.71,0,0,0,88.22,110.16Z"/><path class="cls-9" d="M19.1,63.71a40.91,40.91,0,0,0,4.35,25.14,1.21,1.21,0,0,0,1.75.36l2.31-1.51A1.33,1.33,0,0,0,28,85.92a37.42,37.42,0,0,1-5.38-21.31"/><path class="cls-9" d="M15.73,62.79l10,3.13a.75.75,0,0,0,.91-1l-2.85-7.23a.66.66,0,0,0-1-.3l-7.15,4.09A.69.69,0,0,0,15.73,62.79Z"/><rect class="cls-2" x="100.79" y="51.86" width="16.62" height="25.94" rx="0.69"/><g class="cls-11"><rect class="cls-7" x="109.1" y="50.25" width="9.3" height="28.16"/></g><circle class="cls-2" cx="71.72" cy="99.83" r="1.31"/><g class="cls-12"><rect class="cls-7" x="70.84" y="96.47" width="2.02" height="4.69" transform="translate(-26.97 170.66) rotate(-90)"/></g><rect class="cls-2" x="41.63" y="84.33" width="24" height="31" rx="0.91" transform="translate(-46.2 153.45) rotate(-90)"/><g class="cls-13"><rect class="cls-7" x="46.32" y="76.29" width="13.42" height="33.65" transform="translate(-40.09 146.14) rotate(-90)"/></g></svg>