<svg id="Layer_1" data-name="Layer 1" xmlns="http://www.w3.org/2000/svg" viewBox="0 0 129.36 128.96"><defs><style>.cls-1{fill:#cccece;}.cls-2{fill:#e6e6e6;}</style></defs><path class="cls-1" d="M60.73,41.59H49.19a4.09,4.09,0,1,0,0,5.2H60.73Z"/><path class="cls-2" d="M81.49,40.1a4.07,4.07,0,0,0-3.13,1.49H68.63v5.2h9.73a4.08,4.08,0,1,0,3.13-6.69Z"/><path class="cls-1" d="M64.71,110.17l0-18.92V37.06h-4V90.19A5.26,5.26,0,0,1,60,92.94c-1.48,2.45-4.55,3.12-8.18,3-5-.24-13.52-6.53-14.84-12,.6,0,1.2-.1,1.82-.13a1.3,1.3,0,0,0,.87-2.2,37,37,0,0,1-6.1-9,1.3,1.3,0,0,0-2.11-.31,16.36,16.36,0,0,0-4.21,12.1,1.29,1.29,0,0,0,1.78,1.15,23.31,23.31,0,0,1,2.32-.75C38.21,98.28,49.42,109,64.71,110.17Z"/><path class="cls-2" d="M64.68,110.17l0-18.92V37.06h4V90.19a5.36,5.36,0,0,0,.69,2.75c1.49,2.45,4.56,3.12,8.18,3,5-.24,13.52-6.53,14.85-12-.6,0-1.2-.1-1.82-.13a1.3,1.3,0,0,1-.88-2.2,37.08,37.08,0,0,0,6.11-9,1.29,1.29,0,0,1,2.1-.31,16.37,16.37,0,0,1,4.22,12.1,1.3,1.3,0,0,1-1.79,1.15A23.12,23.12,0,0,0,98,84.8C91.18,98.28,80,109,64.68,110.17Z"/><path class="cls-2" d="M64.68,17.86A10.82,10.82,0,1,0,75.5,28.68,10.81,10.81,0,0,0,64.68,17.86Zm0,14.77a4,4,0,1,1,3.95-4A4,4,0,0,1,64.68,32.63Z"/><path class="cls-1" d="M64.68,17.86a10.82,10.82,0,0,0,0,21.64V32.63a4,4,0,0,1,0-7.9Z"/></svg>