<svg id="Layer_1" data-name="Layer 1" xmlns="http://www.w3.org/2000/svg" xmlns:xlink="http://www.w3.org/1999/xlink" viewBox="0 0 129.36 128.96"><defs><style>.cls-1{fill:none;}.cls-2{fill:#f2c666;}.cls-3{fill:#fff;}.cls-4,.cls-8{fill:#e6e6e6;}.cls-5{fill:#2e3192;}.cls-6{fill:#d88c25;}.cls-7{clip-path:url(#clip-path);}.cls-8{stroke:#e6e6e6;stroke-miterlimit:10;stroke-width:1.13px;}.cls-9{fill:url(#linear-gradient);}.cls-10{fill:#d67369;}.cls-11{fill:#ee7f70;}.cls-12{fill:#27464f;}.cls-13{fill:url(#linear-gradient-2);}.cls-14{clip-path:url(#clip-path-2);}.cls-15{fill:#d3aa59;}.cls-16{clip-path:url(#clip-path-3);}.cls-17{fill:#f2f2f2;}.cls-18{clip-path:url(#clip-path-4);}.cls-19{fill:#7bc7ff;}.cls-20{clip-path:url(#clip-path-5);}.cls-21{opacity:0.1;}.cls-22{fill:#edeeef;}.cls-23{fill:#d8a925;}.cls-24{fill:#2a317c;}.cls-25{fill:#4554a0;}.cls-26{clip-path:url(#clip-path-6);}</style><clipPath id="clip-path"><circle class="cls-1" cx="67.07" cy="67.51" r="53.31"/></clipPath><linearGradient id="linear-gradient" x1="-734.51" y1="-757.69" x2="-680.99" y2="-757.69" gradientTransform="translate(294.71 1105.75) rotate(29.26)" gradientUnits="userSpaceOnUse"><stop offset="0" stop-color="#d67369"/><stop offset="1" stop-color="#ee7f70"/></linearGradient><linearGradient id="linear-gradient-2" x1="-184.52" y1="-231" x2="-132.31" y2="-246.64" gradientTransform="matrix(-0.76, 0.65, 0.65, 0.76, 160.23, 384.54)" xlink:href="#linear-gradient"/><clipPath id="clip-path-2"><path class="cls-2" d="M114.1,133.58a4,4,0,0,0-2.83,4.48l3.37,22.25a7.39,7.39,0,0,0,2,3.59h0l9.7,8.14c1.54,1.3,3.56.87,5-.54,1.64-1.62,1.8-3.8.08-5.25l-8.23-6.91a3.51,3.51,0,0,1-1.22-2.18l-3.1-20.42A3.86,3.86,0,0,0,114.1,133.58Z"/></clipPath><clipPath id="clip-path-3"><rect class="cls-3" x="15.8" y="87.17" width="42.34" height="23.32" rx="1.66" transform="translate(49.8 -5.9) rotate(27.5)"/></clipPath><clipPath id="clip-path-4"><path class="cls-4" d="M70.66,35.5l0,2.44c13.77.23,30.24,2.83,43,5.65a3.78,3.78,0,0,0,1.11-2.07C102.55,33.54,82.05,34,70.66,35.5Z"/></clipPath><clipPath id="clip-path-5"><path class="cls-5" d="M103.53,24.71a18.68,18.68,0,0,0-6.41,1.09c-2.27-3.58-8.23-6.9-15-6.9-8.68,0-16,3.67-16,8.12A10.32,10.32,0,0,0,69,33l1.41,2.23a1.87,1.87,0,0,0,.25.39c2.06,2.36,7.52,1.23,11.73,1.23A26.24,26.24,0,0,0,92.23,35c8.13.68,16.38,2.54,22.53,6.56A40.75,40.75,0,0,0,116,32.32C116,28.11,110.42,24.71,103.53,24.71Z"/></clipPath><clipPath id="clip-path-6"><ellipse class="cls-6" cx="129.52" cy="127.99" rx="1.85" ry="2.1" transform="translate(-21.18 25.78) rotate(-10.51)"/></clipPath></defs><g class="cls-7"><circle class="cls-8" cx="67.07" cy="67.51" r="53.31"/><path class="cls-9" d="M36.08,107.48c-8.36-8.62-12.9-18.18-10.2-24.59,1.57-3.73,6.44-4.79,10-2.81a50.33,50.33,0,0,0,24.21,7.17c3.9,19.35,15.59,48.44-9.54,31.46"/><path class="cls-10" d="M36.08,107.48a46.11,46.11,0,0,1-9.45-13.19c-3-6.18-2.68-16.16,6.44-15.38a9.53,9.53,0,0,1,3.86,1.48,49.86,49.86,0,0,0,7.33,3.43A51.09,51.09,0,0,0,60.06,87a.27.27,0,0,1,.27.23c.86,4.25,2,8.47,3,12.69A129.24,129.24,0,0,1,66,112.69c2.33,15.28-6.11,12.52-15.48,6,21.07,14.14,15.6-5.06,12.29-18.69-1-4.22-2.15-8.44-3-12.71l.27.23a49.94,49.94,0,0,1-16-3.2,51.35,51.35,0,0,1-7.39-3.48A8.89,8.89,0,0,0,33,79.42c-4.4-.58-7.63,2.56-7.68,6.92-.1,8.22,5.45,15.31,10.75,21.14Z"/><path class="cls-10" d="M102.77,32.81c.67-.88,4.52-.66,4.3,1.31L106,37.35A8.44,8.44,0,0,1,102.77,32.81Z"/><path class="cls-10" d="M111,34.78c1.13-1.11,4.82-.6,4.29,1.81l-.95,2.8Z"/><path class="cls-10" d="M145.47,98.5c-18.55,10.65-27.1-3.16-26.61-20.15V62.55a28.32,28.32,0,0,0-6.49-18.08l.08,0a14.34,14.34,0,0,0,2.81-8.59.88.88,0,0,0-1.47-.65c-2.33,2.13-4.86,4-6.58,4.37-.34-.25-.67-.51-1-.74a15.46,15.46,0,0,0,.89-5c0-.76-4.2,1.7-5.48,2.52a28.48,28.48,0,0,0-11.17-2.28h0A28.43,28.43,0,0,0,62,62.55v47.88l58,36.94c21.86.1,32.76-15.79,36.59-40.35C157.73,99.76,151.84,94.84,145.47,98.5Z"/><path class="cls-11" d="M142.09,98.32c-18.17,10.06-26.55-3.64-26.06-20.46V62.06A28.32,28.32,0,0,0,109.53,44l.09,0a14.3,14.3,0,0,0,2.8-8.57.88.88,0,0,0-1.47-.66c-2.33,2.13-4.85,4-6.58,4.36h0a1.78,1.78,0,0,1-.65-1.86,15.28,15.28,0,0,0,.53-3.87.87.87,0,0,0-1.47-.66,32.21,32.21,0,0,1-4,3.16,28.31,28.31,0,0,0-11.18-2.28h0A28.43,28.43,0,0,0,59.16,62.06v47.88c15,20.16,31.8,40.54,58,37.43,21.78.28,32.62-15.57,36.64-40.76A8,8,0,0,0,142.09,98.32Z"/><ellipse class="cls-12" cx="69.73" cy="55.48" rx="2" ry="2.31"/><ellipse class="cls-12" cx="78.02" cy="55.78" rx="2" ry="2.31"/><rect class="cls-12" x="77.45" y="46.98" width="9.08" height="3.17" rx="1.31" transform="translate(15.28 -19.48) rotate(14.92)"/><rect class="cls-12" x="63.35" y="46.44" width="9.08" height="3.17" rx="1.31" transform="matrix(-0.97, 0.26, -0.26, -0.97, 145.86, 76.95)"/><path class="cls-10" d="M59.16,87c9.61,1.38,17.91-7.14,17.45-15.67Z"/><path class="cls-2" d="M54.74,70.85C60,72.51,66.43,70.6,69.1,67c1.32-1.44,3.2-2.66,4.93-2,2.35.88,3.21,3.45,2.58,6.74-3,11.7-19,18.74-26.15,14.35A7.92,7.92,0,1,1,56,71.22"/><circle class="cls-10" cx="104.3" cy="53.47" r="2.87"/><circle class="cls-10" cx="99.54" cy="58.01" r="1.43"/><circle class="cls-10" cx="104.92" cy="60.7" r="2.1"/><path class="cls-3" d="M54.94,82c3.3,2.21,7.44,1.39,8.88-3.4a.37.37,0,0,0-.56-.42,24.64,24.64,0,0,1-8.19,3.15A.37.37,0,0,0,54.94,82Z"/><path class="cls-10" d="M59.27,105.4c.18,5.87.5,11.54,1.07,16.82a24.81,24.81,0,0,0,13.25,19.44c12.13,6.18,29.09,8.46,46.42,5.71-26.63-2.54-49.34-10.11-52.77-42.54a4,4,0,0,0-4-3.55h0A4,4,0,0,0,59.27,105.4Z"/><path class="cls-13" d="M94.71,133.36c29.69-1.83,56.87-41,47.56-54.65C140,75.37,135,75.3,132,77.94c-11.47,10.37-24.57,13.65-38.72,13.63"/><path class="cls-10" d="M94.7,133.28c16.89-1.52,31.21-13.26,40.67-26.72,4.47-6.75,8.7-14.67,7.92-22.94-.38-2.43-1.38-5.2-3.81-6.24a6.84,6.84,0,0,0-7,1.19,59.12,59.12,0,0,1-6.77,5.18,54.37,54.37,0,0,1-32.55,7.82c11-.57,22.4-2.8,31.69-9.16a59,59,0,0,0,6.54-5.08A8.37,8.37,0,0,1,140.13,76c2.94,1.3,4.19,4.54,4.57,7.49.69,8.69-3.77,16.81-8.48,23.71-9.32,13.12-25.32,25.77-41.52,26.13Z"/><path class="cls-2" d="M114.1,133.58a4,4,0,0,0-2.83,4.48l3.37,22.25a7.39,7.39,0,0,0,2,3.59h0l9.7,8.14c1.54,1.3,3.56.87,5-.54,1.64-1.62,1.8-3.8.08-5.25l-8.23-6.91a3.51,3.51,0,0,1-1.22-2.18l-3.1-20.42A3.86,3.86,0,0,0,114.1,133.58Z"/><g class="cls-14"><path class="cls-15" d="M118,132c-1.95.49-5.08-8-4.77-6l5.31,32.78a7.33,7.33,0,0,0,2,3.59h0l14.42,12.24c1.54,1.3-1.17-3.23.27-4.64,1.64-1.62,1.81-3.8.08-5.25L127,157.71a3.55,3.55,0,0,1-1.22-2.19l-3.1-20.41A3.86,3.86,0,0,0,118,132Z"/></g><rect class="cls-3" x="15.8" y="87.17" width="42.34" height="23.32" rx="1.66" transform="translate(49.8 -5.9) rotate(27.5)"/><g class="cls-16"><path class="cls-17" d="M23.57,78.71,36.31,97.85a2.14,2.14,0,0,0,1.83,1l23-.54Z"/></g><path class="cls-5" d="M83,37.24c-2.49-.38-7.47,0-12.36.78a73.06,73.06,0,0,0-11.52,2.47,1.67,1.67,0,0,0-.72.41,1.22,1.22,0,0,0,.24,1.61,3.47,3.47,0,0,0,1.66.66,229.55,229.55,0,0,0,42.48,4.28,18.48,18.48,0,0,0,2.36-.22,22.47,22.47,0,0,0,8.47-3.57c-3.67-1.62-6.45-3.44-10.3-4.55-8-2.31-26.2-3.21-33.89-.07"/><path class="cls-4" d="M70.66,35.5l0,2.44c13.77.23,30.24,2.83,43,5.65a3.78,3.78,0,0,0,1.11-2.07C102.55,33.54,82.05,34,70.66,35.5Z"/><g class="cls-18"><path class="cls-19" d="M77.26,32l-.18,2.44c13.71,1.32,29.92,5.22,42.38,9a3.66,3.66,0,0,0,1.28-2C109.2,32.59,88.73,31.44,77.26,32Z"/></g><polygon class="cls-5" points="114.76 41.59 114.76 41.59 114.76 41.59 114.76 41.59"/><path class="cls-5" d="M103.53,24.71a18.68,18.68,0,0,0-6.41,1.09c-2.27-3.58-8.23-6.9-15-6.9-8.68,0-16,3.67-16,8.12A10.32,10.32,0,0,0,69,33l1.41,2.23a1.87,1.87,0,0,0,.25.39c2.06,2.36,7.52,1.23,11.73,1.23A26.24,26.24,0,0,0,92.23,35c8.13.68,16.38,2.54,22.53,6.56A40.75,40.75,0,0,0,116,32.32C116,28.11,110.42,24.71,103.53,24.71Z"/><path class="cls-5" d="M113.65,43.66l-3.8-.81C111.33,43.78,112.65,44.4,113.65,43.66Z"/><path class="cls-5" d="M103.53,24.71a18.68,18.68,0,0,0-6.41,1.09c-2.27-3.58-8.23-6.9-15-6.9-8.68,0-16,3.67-16,8.12A10.32,10.32,0,0,0,69,33l1.41,2.23a1.87,1.87,0,0,0,.25.39c2.06,2.36,7.52,1.23,11.73,1.23A26.24,26.24,0,0,0,92.23,35c8.13.68,16.38,2.54,22.53,6.56A40.75,40.75,0,0,0,116,32.32C116,28.11,110.42,24.71,103.53,24.71Z"/><g class="cls-20"><path class="cls-21" d="M67.27,34.56s7.62-5.08,12.13-5,10,3.1,13,3.21a14.92,14.92,0,0,0,5.11-.87.23.23,0,0,1,.26.35c-.36.5-.65,1.14,0,1.3L108.36,36a6.15,6.15,0,0,1,4.79,5.93h0l-45-3.55Z"/><path class="cls-21" d="M70,35.9s-2.2-7.1,2-10,7.63,1.55,9.8,1.51,2.72-4,6-4,11.43,5.15,11.43,5.15L97.12,25.8l4.47-2.63,8.69,2.08L116,28.56l.94,6.94-1.56,6.89L65.83,38.15Z"/></g><circle class="cls-22" cx="105.46" cy="39.89" r="3.32"/><circle class="cls-23" cx="105.58" cy="39.89" r="2.37"/><path class="cls-24" d="M86.16,121.52c-2-3.2-5.19-2.82-5.45,1.69l3.05,19.91a6.35,6.35,0,0,0,7.45,5.28L128.55,142a7.12,7.12,0,0,0,5.83-8.17L131,113.29"/><path class="cls-24" d="M56.19,95.17a110,110,0,0,0,24.52,28l4.4-3.88c-8.86-5.75-17.41-15-25.47-26.8a.9.9,0,0,0-1.22-.26l-1.8,1.11A1.31,1.31,0,0,0,56.19,95.17Z"/><path class="cls-5" d="M133.57,131.43a257,257,0,0,1-34.7,5.91c-5.29.16-9.69-2.31-10.63-7.24l-1.74-9.16-3.66-2L131.17,110a2.05,2.05,0,0,1,2.4,1.64l2.9,15.29A4.3,4.3,0,0,1,133.57,131.43Z"/><path class="cls-25" d="M136.44,126.74a4.41,4.41,0,0,1-2.81,4.89c-5.7,1.74-11.51,3.12-17.34,4.32s-11.75,2.07-17.67,2.76a15.47,15.47,0,0,1-5.57-.78c-3.79-1.17-5.82-5.06-6.17-8.78L86,123.92a7,7,0,0,0-.6-2.61,2.2,2.2,0,0,0-3.82-.57,2.79,2.79,0,0,0-.44,2.41c.47,3.58,1,7.15,1.41,10.74-.78-3.53-1.46-7.07-2.2-10.61a3.67,3.67,0,0,1,.49-3.08,3.23,3.23,0,0,1,5.58.56,7.86,7.86,0,0,1,.83,2.92l1.06,5.19c.43,3.28,1.94,6.54,5.3,7.59a15,15,0,0,0,4.86.67q8.84-1,17.61-2.46c5.86-.95,11.67-2.15,17.47-3.44a4.29,4.29,0,0,0,2.92-4.49Z"/><ellipse class="cls-6" cx="129.52" cy="127.99" rx="1.85" ry="2.1" transform="translate(-21.18 25.78) rotate(-10.51)"/><g class="cls-26"><ellipse class="cls-23" cx="130.13" cy="128.39" rx="1.85" ry="2.1" transform="translate(-21.24 25.9) rotate(-10.51)"/></g></g></svg>