<svg id="Layer_1" data-name="Layer 1" xmlns="http://www.w3.org/2000/svg" xmlns:xlink="http://www.w3.org/1999/xlink" viewBox="0 0 129.36 128.96"><defs><style>.cls-1{fill:none;}.cls-2{fill:#f2c666;}.cls-3{clip-path:url(#clip-path);}.cls-4{fill:#27464f;}.cls-5{fill:#e6e6e6;stroke:#e6e6e6;}.cls-5,.cls-8{stroke-miterlimit:10;stroke-width:1.27px;}.cls-6{clip-path:url(#clip-path-2);}.cls-7{fill:#cea763;opacity:0.21;}.cls-15,.cls-8{fill:#fff;}.cls-8{stroke:#fff;}.cls-9{clip-path:url(#clip-path-3);}.cls-10{fill:#b3e5e1;}.cls-11{fill:#d67369;}.cls-12{fill:#243e44;}.cls-13{fill:#f2f2f2;}.cls-14{fill:#ee7f70;}.cls-16{clip-path:url(#clip-path-4);}.cls-17{fill:#d3aa59;}.cls-18{clip-path:url(#clip-path-5);}.cls-19{fill:url(#linear-gradient);}</style><clipPath id="clip-path"><circle class="cls-1" cx="-82.29" cy="-94.79" r="53.31"/></clipPath><clipPath id="clip-path-2"><path class="cls-2" d="M10,71.94H56.63a4.1,4.1,0,0,1,4.1,4.1V94.62a22.6,22.6,0,0,1-22.6,22.6H28.46a22.6,22.6,0,0,1-22.6-22.6V76a4.1,4.1,0,0,1,4.1-4.1Z"/></clipPath><clipPath id="clip-path-3"><circle class="cls-1" cx="96.41" cy="44.85" r="27.09"/></clipPath><clipPath id="clip-path-4"><path class="cls-2" d="M83.85,75.69h0a2.24,2.24,0,0,1,3.08-.82l7.46,4.31h0l1.3.74a4.63,4.63,0,0,1,2.24,4.8l-1.16,6.62a1.71,1.71,0,0,1-2,1.39L94,92.59a2,2,0,0,1-1.6-2.31l.86-4.72a2.41,2.41,0,0,0-1.17-2.51l-7.4-4.27A2.26,2.26,0,0,1,83.85,75.69Z"/></clipPath><clipPath id="clip-path-5"><path class="cls-2" d="M70.23,75.69h0a2.26,2.26,0,0,1,3.09-.82l7.46,4.31h0l1.3.74a4.65,4.65,0,0,1,2.24,4.8l-1.16,6.62a1.72,1.72,0,0,1-2,1.39l-.79-.14a2,2,0,0,1-1.6-2.31l.86-4.72a2.41,2.41,0,0,0-1.17-2.51l-7.4-4.27A2.27,2.27,0,0,1,70.23,75.69Z"/></clipPath><linearGradient id="linear-gradient" x1="-4693.13" y1="556.19" x2="-4667.19" y2="548.42" gradientTransform="matrix(-0.6, 0.8, 0.8, 0.6, -3158.22, 3464.01)" gradientUnits="userSpaceOnUse"><stop offset="0" stop-color="#d67369"/><stop offset="1" stop-color="#ee7f70"/></linearGradient></defs><g class="cls-3"><path class="cls-4" d="M-10.39,5.79l10,10.38A2.7,2.7,0,0,1-.52,20L-17,35.84a2.71,2.71,0,0,1-3.76,0c-6.51-6.26-7.55-13.51,2.41-19.29"/></g><path class="cls-5" d="M52.15,54.61a18.86,18.86,0,1,0-37.71,0V71.94h4.84V54.61a14,14,0,1,1,28,0V71.94h4.84Z"/><path class="cls-2" d="M10,71.94H56.63a4.1,4.1,0,0,1,4.1,4.1V94.62a22.6,22.6,0,0,1-22.6,22.6H28.46a22.6,22.6,0,0,1-22.6-22.6V76a4.1,4.1,0,0,1,4.1-4.1Z"/><g class="cls-6"><path class="cls-7" d="M59,68.13c1.5,18.37-12,51.5-40.92,57.33l75.25-1.19Z"/></g><path class="cls-8" d="M38.07,84a4.78,4.78,0,1,0-7.39,4l-.84,4.69a.9.9,0,0,0,.88,1.06H36a.89.89,0,0,0,.88-1.06L36,87.92A4.77,4.77,0,0,0,38.07,84Z"/><g class="cls-9"><circle class="cls-10" cx="96.41" cy="51.3" r="44.28"/><path class="cls-11" d="M84.63,37.21c-.34-.23-1.49-.08-1.49.45l.38,1.12Z"/><path class="cls-11" d="M81.75,37.91c-.34-.23-1.62-.23-1.44.61l.33,1Z"/><path class="cls-11" d="M61.79,58C71,63.24,75.25,56.37,75,47.93V40.08a14.08,14.08,0,0,1,3.22-9l0,0a7.12,7.12,0,0,1-1.39-4.27.43.43,0,0,1,.73-.32A9,9,0,0,0,80.8,28.7l.5-.37a7.88,7.88,0,0,1-.44-2.49c0-.38,2.09.84,2.72,1.25A14.09,14.09,0,0,1,89.14,26h0a14.12,14.12,0,0,1,14.12,14.12V63.87L74.44,82.23c-10.86,0-16.28-7.85-18.18-20.05C55.7,58.57,58.62,56.13,61.79,58Z"/><path class="cls-4" d="M92.5,100.19a4.66,4.66,0,1,1,8.62,3.55l-.31,1a1,1,0,0,1-1.24.69l-13.82-3.56A1,1,0,0,1,85,100.6l1.07-3.89A1,1,0,0,1,87,96l6.77-.58a1,1,0,0,1,1,.65,3.92,3.92,0,0,0,1.78,2.13"/><path class="cls-12" d="M101.31,103.16a4.66,4.66,0,0,0-2.73-5.51,4.38,4.38,0,0,0-4.67.61.1.1,0,0,0,.1.18C97.71,97,100.92,100.07,101.31,103.16Z"/><path class="cls-13" d="M87,91.83h7.78A1.17,1.17,0,0,1,96,93v2.72a1.2,1.2,0,0,1-1.2,1.2H87a1.17,1.17,0,0,1-1.17-1.17V93A1.2,1.2,0,0,1,87,91.83Z" transform="matrix(-0.98, -0.19, 0.19, -0.98, 162.41, 204.2)"/><path class="cls-14" d="M103.26,75a16.08,16.08,0,0,1-7.57,4.9L90,81.86a22.17,22.17,0,0,1-6.76.43l-.4-.81-.85-1-1.78-1.14-1.43-.82L75.1,76.36"/><path class="cls-14" d="M63.47,57.85c9,5,13.19-1.8,13-10.16V39.84a14.11,14.11,0,0,1,3.22-9l0,0a7.12,7.12,0,0,1-1.39-4.26.44.44,0,0,1,.73-.33,8.9,8.9,0,0,0,3.27,2.17h0a.85.85,0,0,0,.32-.92,8.07,8.07,0,0,1-.26-1.93.44.44,0,0,1,.73-.33,15.59,15.59,0,0,0,2,1.58,14.09,14.09,0,0,1,5.55-1.14h0a14.13,14.13,0,0,1,14.13,14.13V63.63c-8.43,9.23-16.49,19.58-28.79,18.6C65.05,82.37,59.67,74.49,57.67,62A4,4,0,0,1,63.47,57.85Z"/><ellipse class="cls-4" cx="99.42" cy="36.57" rx="0.99" ry="1.15"/><ellipse class="cls-4" cx="95.3" cy="36.72" rx="0.99" ry="1.15"/><rect class="cls-4" x="91.07" y="32.35" width="4.51" height="1.58" rx="0.37" transform="translate(192.04 41.12) rotate(165.08)"/><rect class="cls-4" x="98.08" y="32.08" width="4.51" height="1.58" rx="0.37" transform="translate(11.85 -24.73) rotate(14.92)"/><path class="cls-11" d="M104.67,52.22A7.77,7.77,0,0,1,96,44.43Z"/><path class="cls-2" d="M106.87,44.21c-2.63.82-5.81-.13-7.14-1.93a2.44,2.44,0,0,0-2.45-1c-1.17.43-1.6,1.71-1.28,3.35,1.48,5.81,9.43,9.31,13,7.13a3.94,3.94,0,1,0-2.76-7.37"/><path class="cls-12" d="M100.7,105h0a1.2,1.2,0,0,1-1.45.77L85,102l.42-1.18Z"/><circle class="cls-11" cx="82.24" cy="35.57" r="1.43"/><circle class="cls-11" cx="84.61" cy="37.83" r="0.71"/><circle class="cls-11" cx="83.89" cy="46.86" r="0.73"/><path class="cls-4" d="M78.06,100.19a4.66,4.66,0,1,1,8.62,3.55l-.31,1a1,1,0,0,1-1.23.69l-13.83-3.56a1,1,0,0,1-.73-1.26l1.07-3.89a1,1,0,0,1,.9-.74l6.77-.58a1,1,0,0,1,1,.65,3.92,3.92,0,0,0,1.78,2.13"/><path class="cls-13" d="M73,92h7.78a1.17,1.17,0,0,1,1.17,1.17v2.72a1.2,1.2,0,0,1-1.2,1.2H72.92a1.17,1.17,0,0,1-1.17-1.17V93.19A1.2,1.2,0,0,1,73,92Z" transform="translate(134.45 201.86) rotate(-169.13)"/><path class="cls-12" d="M86.37,104.65h0a1.22,1.22,0,0,1-1.45.77l-14-3.68a.6.6,0,0,1-.42-.73l.16-.64Z"/><path class="cls-15" d="M106.77,49.75a2.75,2.75,0,0,1-4.41-1.69.18.18,0,0,1,.27-.21,12.15,12.15,0,0,0,4.08,1.56A.19.19,0,0,1,106.77,49.75Z"/><path class="cls-12" d="M86.9,102.76s.06,0,.07,0c.67-1.9-.86-4.45-2.73-5.22a4.53,4.53,0,0,0-5.12,1s0,.08,0,.06C83,96.62,86.41,99.59,86.9,102.76Z"/><path class="cls-11" d="M104.62,61.38A80.13,80.13,0,0,1,103.26,75c-5.34,6.2-16.9,9.1-28.82,7.21,13.22-1.26,24.5-5,26.21-21.11a2,2,0,0,1,2-1.8h0A2,2,0,0,1,104.62,61.38Z"/><path class="cls-2" d="M83.85,75.69h0a2.24,2.24,0,0,1,3.08-.82l7.46,4.31h0l1.3.74a4.63,4.63,0,0,1,2.24,4.8l-1.16,6.62a1.71,1.71,0,0,1-2,1.39L94,92.59a2,2,0,0,1-1.6-2.31l.86-4.72a2.41,2.41,0,0,0-1.17-2.51l-7.4-4.27A2.26,2.26,0,0,1,83.85,75.69Z"/><g class="cls-16"><path class="cls-17" d="M93.52,92.83l1.19-7.53a3,3,0,0,0-1.48-3.1L83,76.29l-.26,2.5,9.65,5.28-.78,7.62Z"/></g><path class="cls-2" d="M70.23,75.69h0a2.26,2.26,0,0,1,3.09-.82l7.46,4.31h0l1.3.74a4.65,4.65,0,0,1,2.24,4.8l-1.16,6.62a1.72,1.72,0,0,1-2,1.39l-.79-.14a2,2,0,0,1-1.6-2.31l.86-4.72a2.41,2.41,0,0,0-1.17-2.51l-7.4-4.27A2.27,2.27,0,0,1,70.23,75.69Z"/><g class="cls-18"><path class="cls-17" d="M79.91,92.83,81.1,85.3a3,3,0,0,0-1.48-3.1L69.4,76.29l-.26,2.5,9.65,5.28L78,91.69Z"/></g><path class="cls-19" d="M96.56,85.7c14.23-4,23.34-25.87,17.39-31.52a3.51,3.51,0,0,0-5.1.7c-4.48,6.24-10.5,9.2-17.38,10.67"/><path class="cls-11" d="M96.52,85.55c7.91-2.72,13.33-9.91,16.34-17.39,1.37-3.83,2.7-8.39.83-12.13a2.27,2.27,0,0,0-1.46-1.17,2.35,2.35,0,0,0-2.15.94,25.76,25.76,0,0,1-2.89,3.31A24.91,24.91,0,0,1,91.5,65.7a.15.15,0,0,1-.06-.29c5.12-1.9,10-4.36,13.67-8.37,2.25-2.41,3.74-5.87,7.73-5,1.88.4,3.12,2.15,3.68,3.88,1.79,7.16-2.19,14.73-6.28,20.32-3.48,4.42-8.09,8.25-13.64,9.62a.15.15,0,0,1-.08-.29Z"/></g></svg>