<svg id="Layer_1" data-name="Layer 1" xmlns="http://www.w3.org/2000/svg" xmlns:xlink="http://www.w3.org/1999/xlink" viewBox="0 0 129.36 128.96"><defs><style>.cls-1{fill:#f2c666;}.cls-2,.cls-3{fill:#f7931e;stroke:#f7931e;}.cls-11,.cls-2,.cls-3,.cls-8{stroke-miterlimit:10;}.cls-2{stroke-width:1.09px;}.cls-3{stroke-width:1.07px;}.cls-4{fill:#0071bc;}.cls-5{fill:#00a99d;}.cls-11,.cls-6{fill:#fff;}.cls-7{fill-rule:evenodd;}.cls-8{fill:#e6e6e6;stroke:#e6e6e6;}.cls-11,.cls-8{stroke-width:0.4px;}.cls-9{clip-path:url(#clip-path);}.cls-10{fill:#cea763;opacity:0.21;}.cls-11{stroke:#fff;}</style><clipPath id="clip-path"><path class="cls-1" d="M40.83,101.7H55.66A1.3,1.3,0,0,1,57,103v5.91a7.19,7.19,0,0,1-7.19,7.19H46.71a7.19,7.19,0,0,1-7.19-7.19V103a1.3,1.3,0,0,1,1.3-1.3Z"/></clipPath></defs><path class="cls-2" d="M91.4,33.75a40.63,40.63,0,0,0-20.23-15.4,1.21,1.21,0,0,0-1.51.95L69,22a1.35,1.35,0,0,0,.88,1.62A37,37,0,0,1,88.27,35.48"/><path class="cls-2" d="M94.47,32.11,85.1,36.68a.75.75,0,0,0,0,1.32l7,3.33A.64.64,0,0,0,93,40.9l2.4-7.9A.69.69,0,0,0,94.47,32.11Z"/><path class="cls-3" d="M81.84,105A43.36,43.36,0,0,0,103.7,90.08a1.31,1.31,0,0,0-.3-1.85l-2.24-1.57a1.3,1.3,0,0,0-1.82.31,40.15,40.15,0,0,1-17.92,14.25"/><path class="cls-3" d="M82.19,108.6l-.67-11a.71.71,0,0,0-1.22-.45L74.59,103a.71.71,0,0,0,.06,1L81,109.18A.71.71,0,0,0,82.19,108.6Z"/><path class="cls-2" d="M13.07,62.14a40.9,40.9,0,0,0,4.34,25.14,1.21,1.21,0,0,0,1.76.36l2.3-1.51a1.34,1.34,0,0,0,.46-1.78A37.34,37.34,0,0,1,16.55,63"/><path class="cls-2" d="M9.69,61.22l10,3.14a.75.75,0,0,0,.9-1l-2.85-7.23a.64.64,0,0,0-.94-.29L9.64,60A.69.69,0,0,0,9.69,61.22Z"/><circle class="cls-4" cx="38.74" cy="34.41" r="21.36"/><circle class="cls-5" cx="48.25" cy="103.15" r="21.36"/><circle class="cls-6" cx="104.87" cy="64.39" r="15.24"/><path class="cls-6" d="M35.45,46.41v-12h-4v-4h4V28.26c0-4.06,2-5.85,5.36-5.85a18.53,18.53,0,0,1,2.88.18v3.82H41.38c-1.43,0-1.93.76-1.93,2.29v1.71h4.2l-.57,4H39.45v12Z"/><path class="cls-7" d="M104.88,48.92a15.38,15.38,0,0,0-4.82,29.94c.76.15,1-.33,1-.74s0-1.58,0-2.85c-4.24.92-5.12-1.83-5.12-1.83a4,4,0,0,0-1.7-2.24c-1.38-.94.1-.94.1-.94a3.2,3.2,0,0,1,2.35,1.58,3.23,3.23,0,0,0,4.45,1.27,3.24,3.24,0,0,1,1-2.06c-3.39-.36-7-1.68-7-7.58a6,6,0,0,1,1.57-4.12,5.61,5.61,0,0,1,.15-4.07s1.29-.41,4.19,1.58a14.45,14.45,0,0,1,3.81-.51,14.78,14.78,0,0,1,3.82.51c2.9-2,4.19-1.58,4.19-1.58a5.61,5.61,0,0,1,.15,4.07,5.92,5.92,0,0,1,1.56,4.12c0,5.9-3.56,7.2-7,7.58a3.67,3.67,0,0,1,1,2.85c0,2.06,0,3.71,0,4.22s.27.89,1,.74a15.38,15.38,0,0,0-4.8-29.94Z"/><path class="cls-8" d="M54.24,96.19a6,6,0,0,0-12,0v5.51h1.54V96.19a4.46,4.46,0,1,1,8.91,0v5.51h1.54Z"/><path class="cls-1" d="M40.83,101.7H55.66A1.3,1.3,0,0,1,57,103v5.91a7.19,7.19,0,0,1-7.19,7.19H46.71a7.19,7.19,0,0,1-7.19-7.19V103a1.3,1.3,0,0,1,1.3-1.3Z"/><g class="cls-9"><path class="cls-10" d="M56.41,100.49c.48,5.84-3.82,16.37-13,18.23l23.92-.38Z"/></g><path class="cls-11" d="M49.76,105.54a1.52,1.52,0,1,0-2.35,1.27l-.26,1.49a.29.29,0,0,0,.28.34h1.69a.29.29,0,0,0,.28-.34l-.28-1.52A1.51,1.51,0,0,0,49.76,105.54Z"/></svg>