<svg id="Layer_1" data-name="Layer 1" xmlns="http://www.w3.org/2000/svg" xmlns:xlink="http://www.w3.org/1999/xlink" viewBox="0 0 129.36 128.96"><defs><style>.cls-1{fill:#b3b3b3;}.cls-2{fill:#e6e6e6;}.cls-3{fill:#2e3192;}.cls-4{fill:#b3e5e1;}.cls-5{fill:#724f33;}.cls-6{fill:#8c6239;}.cls-7{fill:url(#linear-gradient);}.cls-8{fill:#d67369;}.cls-9{clip-path:url(#clip-path);}.cls-10{fill:#999;}.cls-11{clip-path:url(#clip-path-2);}.cls-12{fill:#ee7f70;}.cls-13{fill:#27464f;}.cls-14{fill:#f2c666;}.cls-15{fill:#fff;}.cls-16{clip-path:url(#clip-path-3);}.cls-17{fill:#7bc7ff;}.cls-18{clip-path:url(#clip-path-4);}.cls-19{opacity:0.1;}.cls-20{fill:#edeeef;}.cls-21{fill:#d8a925;}.cls-22{fill:#ccc;}.cls-23{fill:none;stroke:#b3b3b3;stroke-miterlimit:10;stroke-width:1.35px;}.cls-24{clip-path:url(#clip-path-5);}.cls-25{fill:#def9f8;}.cls-26{clip-path:url(#clip-path-6);}</style><linearGradient id="linear-gradient" x1="-807.03" y1="-935.16" x2="-787.67" y2="-935.16" gradientTransform="translate(256.59 1251.76) rotate(29.26)" gradientUnits="userSpaceOnUse"><stop offset="0" stop-color="#d67369"/><stop offset="1" stop-color="#ee7f70"/></linearGradient><clipPath id="clip-path"><path class="cls-1" d="M30.88,93,9.57,115.62a.39.39,0,0,0,.28.66h7a3.31,3.31,0,0,0,2.42-1L37.42,95.85"/></clipPath><clipPath id="clip-path-2"><path class="cls-1" d="M102.85,92.37,124.17,115a.38.38,0,0,1-.28.65h-7a3.3,3.3,0,0,1-2.42-1L96.32,95.21"/></clipPath><clipPath id="clip-path-3"><path class="cls-2" d="M17.16,31l.21.64A62.47,62.47,0,0,1,29,29.6a1.07,1.07,0,0,0,.12-.63C25.32,27.88,20,29.66,17.16,31Z"/></clipPath><clipPath id="clip-path-4"><path class="cls-3" d="M24.86,25.49a5.11,5.11,0,0,0-1.58.81,5.05,5.05,0,0,0-4.48-.58c-2.27.7-3.89,2.25-3.53,3.41a2.85,2.85,0,0,0,1.25,1.31l.55.47a.39.39,0,0,0,.1.08c.73.45,2.06-.29,3.16-.63a7.08,7.08,0,0,0,2.42-1.26A13.54,13.54,0,0,1,29.16,29a11.35,11.35,0,0,0-.43-2.52C28.39,25.37,26.66,24.94,24.86,25.49Z"/></clipPath><clipPath id="clip-path-5"><path class="cls-4" d="M72,25.95H97.8a0,0,0,0,1,0,0V56.3a1.1,1.1,0,0,1-1.1,1.1H76.57A4.62,4.62,0,0,1,72,52.78V25.95a0,0,0,0,1,0,0Z" transform="translate(169.76 83.34) rotate(-180)"/></clipPath><clipPath id="clip-path-6"><path class="cls-4" d="M42,25.95H62.17a1.1,1.1,0,0,1,1.1,1.1V57.39a0,0,0,0,1,0,0H37.42a0,0,0,0,1,0,0V30.57A4.62,4.62,0,0,1,42,25.95Z"/></clipPath></defs><rect class="cls-5" x="29.29" y="101.48" width="75.79" height="1.45"/><rect class="cls-5" x="17.71" y="113.39" width="100.52" height="2.25"/><polyline class="cls-6" points="67.26 101.48 102.4 101.48 99.86 98.77 67.26 98.77"/><polygon class="cls-6" points="67.26 108.3 108.79 108.3 113.57 113.39 67.26 113.39 20.96 113.39 25.74 108.3 67.26 108.3"/><path class="cls-7" d="M12.25,46.35c-1.87-1.93-2.89-4.07-2.28-5.51a1.58,1.58,0,0,1,2.23-.63,11.26,11.26,0,0,0,5.42,1.61c.66,3.25,9.4,10.42,7.8,10.86-.53.14-8.53-2.86-9.93-3.81"/><path class="cls-8" d="M12.25,46.35C10.92,45,8.37,41.56,10.67,40.1a1.84,1.84,0,0,1,1.77.19,11.51,11.51,0,0,0,5.19,1.47,16.24,16.24,0,0,0,3.43,5A52.44,52.44,0,0,1,25.51,52c.12.21.25.61-.07.69a46.73,46.73,0,0,1-10-3.83,47.92,47.92,0,0,0,9.93,3.78c1-.47-3.9-5-4.43-5.8-1.21-1.46-3-3.28-3.37-5a11.11,11.11,0,0,1-5.23-1.51,1.74,1.74,0,0,0-1.69-.2C8.45,41.59,11,45,12.25,46.35Z"/><path class="cls-1" d="M30.88,93,9.57,115.62a.39.39,0,0,0,.28.66h7a3.31,3.31,0,0,0,2.42-1L37.42,95.85"/><g class="cls-9"><polygon class="cls-10" points="13.87 118.6 38.78 92.42 44.69 93.78 20.13 118.77 13.87 118.6"/></g><path class="cls-1" d="M102.85,92.37,124.17,115a.38.38,0,0,1-.28.65h-7a3.3,3.3,0,0,1-2.42-1L96.32,95.21"/><g class="cls-11"><polygon class="cls-10" points="119.87 117.97 94.96 91.79 89.05 93.15 113.61 118.14 119.87 117.97"/></g><polyline class="cls-6" points="67.26 98.77 34.67 98.77 32.13 101.48 67.26 101.48"/><path class="cls-8" d="M41.78,41.34c-4,4.28-7.33,1.37-8.58-3.1l-.59-1.9-.21-.68-.48-1.54a7.68,7.68,0,0,0-3.16-4.19h0a3.84,3.84,0,0,0,0-2.46.23.23,0,0,0-.43,0A5,5,0,0,1,27,29.09L26.7,29a4.15,4.15,0,0,0-.17-1.38c-.06-.2-1,.78-1.23,1.1a7.87,7.87,0,0,0-3.1.31h0a7.77,7.77,0,0,0-5.11,9.72l.85,2.73,2.54,8.17L21,51.21,39.1,56.15c5.71-1.75,7.26-6.78,6.27-13.49C45.07,40.67,43.14,39.87,41.78,41.34Z"/><path class="cls-12" d="M40.88,41.57c-3.92,4.09-7.22,1.2-8.45-3.23l-.6-1.9-.21-.68-.47-1.54A7.81,7.81,0,0,0,28,30h0a4,4,0,0,0,0-2.47.24.24,0,0,0-.44-.05,4.88,4.88,0,0,1-1.36,1.67h0a.46.46,0,0,1-.32-.43,4.43,4.43,0,0,0-.18-1.05.24.24,0,0,0-.44-.06,8.24,8.24,0,0,1-.79,1.15,7.81,7.81,0,0,0-3.09.31h0a7.76,7.76,0,0,0-5.11,9.72l.84,2.73L18.55,46a15.33,15.33,0,0,0,7,8.85c4,2.29,8.29,3.52,12.8,1.51,5.7-1.69,7.24-6.69,6.26-13.57A2.19,2.19,0,0,0,40.88,41.57Z"/><ellipse class="cls-13" cx="18.54" cy="36.26" rx="0.55" ry="0.63" transform="translate(-9.93 7.14) rotate(-17.27)"/><ellipse class="cls-13" cx="20.73" cy="35.66" rx="0.55" ry="0.63" transform="translate(-9.65 7.76) rotate(-17.27)"/><rect class="cls-13" x="19.94" y="33.03" width="2.48" height="0.87" rx="0.36" transform="translate(-1.35 0.89) rotate(-2.34)"/><rect class="cls-13" x="16.22" y="34.03" width="2.48" height="0.87" rx="0.36" transform="translate(50.59 54.33) rotate(147.81)"/><path class="cls-14" d="M15.88,41.48a3.77,3.77,0,0,0,3.43-2.17c.22-.49.61-1,1.12-.93.68,0,1.12.64,1.22,1.55.17,3.29-3.43,6.43-5.66,5.86a2.17,2.17,0,1,1,.25-4.32"/><circle class="cls-8" cx="27.39" cy="32.93" r="0.78"/><circle class="cls-8" cx="26.52" cy="34.5" r="0.39"/><circle class="cls-8" cx="28.14" cy="34.77" r="0.57"/><path class="cls-15" d="M16.83,44.37a1.51,1.51,0,0,0,2-1.6.1.1,0,0,0-.18-.07,6.66,6.66,0,0,1-1.88,1.49A.1.1,0,0,0,16.83,44.37Z"/><path class="cls-3" d="M20.53,30.42a14.67,14.67,0,0,0-3.16,1.21,19.27,19.27,0,0,0-2.8,1.58.49.49,0,0,0-.16.16.34.34,0,0,0,.2.4.87.87,0,0,0,.48,0,62.81,62.81,0,0,0,11.43-2.33,4.47,4.47,0,0,0,.6-.25A6,6,0,0,0,29,29.62,21,21,0,0,0,26,29.26c-2.27,0-7.09,1.29-8.84,2.73"/><path class="cls-2" d="M17.16,31l.21.64A62.47,62.47,0,0,1,29,29.6a1.07,1.07,0,0,0,.12-.63C25.32,27.88,20,29.66,17.16,31Z"/><g class="cls-16"><path class="cls-17" d="M18.6,29.53l.15.65A62.77,62.77,0,0,1,30.54,29.1a1.08,1.08,0,0,0,.17-.62C27,27.09,21.55,28.45,18.6,29.53Z"/></g><path class="cls-3" d="M24.86,25.49a5.11,5.11,0,0,0-1.58.81,5.05,5.05,0,0,0-4.48-.58c-2.27.7-3.89,2.25-3.53,3.41a2.85,2.85,0,0,0,1.25,1.31l.55.47a.39.39,0,0,0,.1.08c.73.45,2.06-.29,3.16-.63a7.08,7.08,0,0,0,2.42-1.26A13.54,13.54,0,0,1,29.16,29a11.35,11.35,0,0,0-.43-2.52C28.39,25.37,26.66,24.94,24.86,25.49Z"/><g class="cls-18"><path class="cls-19" d="M16.2,31s1.58-1.94,2.76-2.29,2.87,0,3.64-.21a4.25,4.25,0,0,0,1.27-.65.06.06,0,0,1,.09.07c-.05.17-.08.35.12.34L27,28a1.68,1.68,0,0,1,1.73,1.16h0l-12,2.71Z"/><path class="cls-19" d="M17,31.14s-1.15-1.68-.29-2.77,2.12-.22,2.68-.4.38-1.28,1.24-1.53a10.55,10.55,0,0,1,3.4.41l-.76-.55.95-1.05,2.43-.16,1.76.4.81,1.73.15,1.93L16.12,32.06Z"/></g><circle class="cls-20" cx="26.59" cy="29.3" r="0.91"/><circle class="cls-21" cx="26.63" cy="29.29" r="0.65"/><rect class="cls-22" x="28.62" y="18.75" width="77.29" height="77.29" rx="9"/><circle class="cls-14" cx="39.91" cy="83.77" r="6.77"/><circle class="cls-14" cx="95.63" cy="83.77" r="6.77"/><polyline class="cls-23" points="28.62 63.24 67.26 63.24 67.26 96.04"/><path class="cls-4" d="M72,25.95H97.8a0,0,0,0,1,0,0V56.3a1.1,1.1,0,0,1-1.1,1.1H76.57A4.62,4.62,0,0,1,72,52.78V25.95a0,0,0,0,1,0,0Z" transform="translate(169.76 83.34) rotate(-180)"/><g class="cls-24"><path class="cls-25" d="M69.59,56.3l9.92-15.51a1.15,1.15,0,0,1,2.07.29l.62,2.13a1.07,1.07,0,0,0,1.92.27l13-20.41,3.08,3.22-16,25.55a1.07,1.07,0,0,1-1.92-.27l-.62-2.13a1.15,1.15,0,0,0-2.07-.29L72.39,60.27Z"/></g><path class="cls-4" d="M42,25.95H62.17a1.1,1.1,0,0,1,1.1,1.1V57.39a0,0,0,0,1,0,0H37.42a0,0,0,0,1,0,0V30.57A4.62,4.62,0,0,1,42,25.95Z"/><g class="cls-26"><path class="cls-25" d="M35.05,56.3,45,40.79a1.15,1.15,0,0,1,2.07.29l.62,2.13a1.07,1.07,0,0,0,1.92.27l13-20.41,3.08,3.22-16,25.55a1.07,1.07,0,0,1-1.92-.27L47,49.44A1.15,1.15,0,0,0,45,49.15L37.86,60.27Z"/></g><polyline class="cls-23" points="105.91 63.24 67.26 63.24 67.26 96.04"/></svg>